<svg width="68" height="69" viewBox="0 0 68 69" fill="none" xmlns="http://www.w3.org/2000/svg">
<circle cx="34.2812" cy="34.4197" r="33.7188" fill="#5846FB"/>
<circle cx="34.2812" cy="34.4197" r="33.7188" fill="url(#paint0_linear_38_2203)"/>
<path d="M43.1512 46.1328H24.816C23.4652 46.1328 22.3711 47.2269 22.3711 48.5777V51.0226C22.3711 51.3588 22.6461 51.6338 22.9823 51.6338H44.9849C45.3211 51.6338 45.5961 51.3588 45.5961 51.0226V48.5777C45.5961 47.2269 44.502 46.1328 43.1512 46.1328Z" fill="white"/>
<path d="M23.5893 29.8333C23.5893 24.8152 27.6478 20.7199 32.6538 20.6648C33.0969 20.0062 33.8442 18.7532 34.408 18.2198C27.3546 17.5826 21.1825 22.6175 21.1445 29.8333V40.0163C21.1445 40.1996 21.224 40.3708 21.3646 40.4869L23.5894 42.3389L23.5893 29.8333Z" fill="white"/>
<path d="M46.3501 30.3492L39.2415 22.3726L40.7085 18.2225C40.7757 18.0391 40.7451 17.8313 40.6351 17.6663C40.3738 17.2629 39.6541 17.4493 39.2232 17.4095C37.365 17.3989 35.6445 18.3615 34.6268 19.8911L33.3126 21.896C28.7393 21.6194 24.7938 25.2332 24.8106 29.8417V44.9054H43.1458V43.2567C43.1458 42.9877 42.9747 42.7555 42.7241 42.676C40.5665 41.967 38.8428 40.2616 38.1155 38.1101L37.2048 35.4085C34.138 35.6759 31.4438 33.9385 30.9963 30.8C30.9138 30.0084 32.0935 29.8541 32.2096 30.6456C32.4373 32.3845 33.7698 33.7842 35.4812 34.1067C35.9198 34.2595 39.9204 34.1602 40.4626 34.1862C40.6582 34.1877 40.8537 34.2916 40.9699 34.4551L41.5628 35.3353C42.2351 36.3896 43.9038 36.4019 44.5868 35.3551L46.4893 32.6092C46.9721 31.9124 46.911 30.9834 46.3487 30.3477L46.3501 30.3492Z" fill="white"/>
<defs>
<linearGradient id="paint0_linear_38_2203" x1="0.5625" y1="11.504" x2="74.0391" y2="20.8968" gradientUnits="userSpaceOnUse">
<stop stop-color="#FF8E37"/>
<stop offset="1" stop-color="#F05306"/>
</linearGradient>
</defs>
</svg>
