<svg width="68" height="69" viewBox="0 0 68 69" fill="none" xmlns="http://www.w3.org/2000/svg">
<circle cx="34.2812" cy="34.4197" r="33.7188" fill="#5846FB"/>
<circle cx="34.2812" cy="34.4197" r="33.7188" fill="url(#paint0_linear_38_2214)"/>
<path d="M35.8263 33.395H44.93C45.1465 34.0673 45.5971 34.6396 46.1998 35.0078C46.8025 35.376 47.5173 35.5157 48.2143 35.4014C48.9112 35.2872 49.5441 34.9266 49.9977 34.3852C50.4513 33.8439 50.6956 33.1577 50.6861 32.4515C50.6766 31.7453 50.414 31.0659 49.946 30.537C49.478 30.008 48.8357 29.6645 48.136 29.5691C47.4362 29.4736 46.7253 29.6324 46.1327 30.0166C45.5401 30.4009 45.1051 30.985 44.9068 31.6629H35.8263V27.8571H40.5279C40.7443 28.5293 41.1949 29.1016 41.7976 29.4698C42.4003 29.838 43.1151 29.9777 43.8121 29.8634C44.5091 29.7492 45.1419 29.3886 45.5955 28.8472C46.0491 28.3059 46.2934 27.6197 46.2839 26.9135C46.2744 26.2073 46.0118 25.528 45.5438 24.999C45.0759 24.47 44.4336 24.1266 43.7338 24.0311C43.034 23.9356 42.3232 24.0944 41.7306 24.4786C41.138 24.8629 40.7029 25.4471 40.5046 26.1249H35.8263V23.5717C35.8225 22.3134 35.3451 21.1027 34.489 20.1806C33.6329 19.2584 32.4609 18.6925 31.2064 18.5955C29.9518 18.4985 28.7068 18.8774 27.719 19.6569C26.7313 20.4365 26.0734 21.5594 25.8762 22.8021C24.6604 23.0352 23.5641 23.6854 22.7763 24.6404C21.9886 25.5953 21.5588 26.7953 21.5611 28.0333C21.5611 28.0912 21.5611 28.1496 21.5641 28.208C20.9455 28.4842 20.3939 28.8911 19.9474 29.4007C19.5009 29.9103 19.17 30.5105 18.9774 31.1601C18.7848 31.8097 18.7351 32.4932 18.8317 33.1639C18.9283 33.8345 19.1689 34.4762 19.537 35.0451C19.0407 35.8698 18.78 36.8149 18.7832 37.7774C18.7848 39.1315 19.3013 40.4343 20.228 41.4216C21.1546 42.4089 22.4221 43.0069 23.7734 43.0942C23.801 44.2884 24.2822 45.4273 25.1191 46.2795C25.956 47.1318 27.086 47.6336 28.2795 47.6829C28.4912 48.5975 29.032 49.4022 29.7989 49.9436C30.5658 50.485 31.5051 50.7253 32.4377 50.6187C33.3704 50.5121 34.2312 50.0661 34.8562 49.3655C35.4811 48.665 35.8264 47.7591 35.8263 46.8203V44.4715H42.3679C42.5842 45.144 43.0347 45.7165 43.6374 46.085C44.24 46.4534 44.955 46.5934 45.6521 46.4793C46.3492 46.3653 46.9823 46.0048 47.4362 45.4635C47.89 44.9222 48.1345 44.2359 48.1253 43.5296C48.116 42.8233 47.8535 42.1437 47.3856 41.6145C46.9176 41.0853 46.2753 40.7416 45.5754 40.6459C44.8755 40.5502 44.1645 40.7089 43.5717 41.0931C42.9789 41.4772 42.5437 42.0614 42.3451 42.7393H35.8263V38.9335H37.6723C37.8885 39.606 38.339 40.1785 38.9417 40.547C39.5444 40.9154 40.2593 41.0554 40.9565 40.9413C41.6536 40.8273 42.2866 40.4668 42.7405 39.9255C43.1944 39.3842 43.4389 38.698 43.4296 37.9916C43.4203 37.2853 43.1578 36.6057 42.6899 36.0765C42.222 35.5473 41.5797 35.2036 40.8798 35.1079C40.1799 35.0123 39.4689 35.1709 38.8761 35.5551C38.2833 35.9393 37.848 36.5234 37.6495 37.2014H35.8263V33.395ZM47.7381 31.2744C47.9788 31.2744 48.2141 31.3458 48.4142 31.4795C48.6144 31.6132 48.7703 31.8033 48.8625 32.0256C48.9546 32.248 48.9787 32.4927 48.9317 32.7288C48.8848 32.9648 48.7688 33.1817 48.5986 33.3519C48.4285 33.5221 48.2116 33.638 47.9755 33.6849C47.7395 33.7319 47.4948 33.7078 47.2724 33.6157C47.05 33.5236 46.86 33.3676 46.7262 33.1675C46.5925 32.9673 46.5212 32.732 46.5212 32.4914C46.5214 32.1687 46.6497 31.8593 46.8779 31.6311C47.1061 31.4029 47.4154 31.2746 47.7381 31.2744ZM43.3335 25.7364C43.5742 25.7364 43.8095 25.8078 44.0096 25.9415C44.2098 26.0753 44.3658 26.2654 44.4579 26.4878C44.5499 26.7102 44.574 26.9549 44.527 27.191C44.48 27.4271 44.3641 27.6439 44.1938 27.8141C44.0236 27.9842 43.8067 28.1001 43.5706 28.147C43.3345 28.1939 43.0898 28.1697 42.8674 28.0776C42.645 27.9854 42.455 27.8293 42.3214 27.6291C42.1877 27.4289 42.1164 27.1936 42.1165 26.9529C42.1169 26.6305 42.245 26.3215 42.4729 26.0935C42.7007 25.8655 43.0097 25.7371 43.332 25.7364H43.3335ZM45.176 42.3508C45.4167 42.3507 45.6521 42.422 45.8522 42.5557C46.0524 42.6894 46.2085 42.8794 46.3007 43.1018C46.3929 43.3241 46.417 43.5688 46.3701 43.8049C46.3232 44.041 46.2074 44.2579 46.0372 44.4282C45.867 44.5984 45.6502 44.7144 45.4141 44.7614C45.178 44.8084 44.9333 44.7843 44.7109 44.6922C44.4885 44.6001 44.2984 44.4441 44.1647 44.244C44.0309 44.0438 43.9595 43.8085 43.9595 43.5678C43.9599 43.2455 44.088 42.9365 44.3157 42.7084C44.5434 42.4803 44.8522 42.3518 45.1745 42.3508H45.176ZM40.4803 36.8129C40.7211 36.8128 40.9564 36.8841 41.1566 37.0178C41.3569 37.1514 41.5129 37.3415 41.6051 37.5639C41.6973 37.7863 41.7214 38.031 41.6745 38.2671C41.6275 38.5032 41.5116 38.7201 41.3414 38.8904C41.1711 39.0606 40.9543 39.1765 40.7181 39.2234C40.482 39.2704 40.2373 39.2462 40.0149 39.1541C39.7925 39.0619 39.6024 38.9058 39.4688 38.7056C39.3351 38.5054 39.2638 38.2701 39.2639 38.0293C39.2643 37.7071 39.3923 37.3981 39.6201 37.1701C39.8478 36.9421 40.1566 36.8136 40.4789 36.8129H40.4803Z" fill="white"/>
<defs>
<linearGradient id="paint0_linear_38_2214" x1="0.5625" y1="11.504" x2="74.0391" y2="20.8968" gradientUnits="userSpaceOnUse">
<stop stop-color="#FF8E37"/>
<stop offset="1" stop-color="#F05306"/>
</linearGradient>
</defs>
</svg>
