<svg width="68" height="69" viewBox="0 0 68 69" fill="none" xmlns="http://www.w3.org/2000/svg">
<circle cx="34.2812" cy="34.4197" r="33.7188" fill="#5846FB"/>
<circle cx="34.2812" cy="34.4197" r="33.7188" fill="url(#paint0_linear_38_2222)"/>
<path fill-rule="evenodd" clip-rule="evenodd" d="M41.8323 21.0874C37.6016 19.3185 30.6682 19.3185 26.4372 21.0874C22.5326 22.7215 22.5326 25.038 26.4372 26.6687C30.6679 28.4375 37.6012 28.4375 41.8323 26.6687C45.7368 25.0345 45.7368 22.7181 41.8323 21.0874ZM44.7638 40.0606V40.0623C44.0282 40.7216 43.181 41.2445 42.2594 41.6043C37.7522 43.4883 30.5173 43.4883 26.0104 41.6043C25.0888 41.2445 24.2416 40.7216 23.5043 40.0623V44.7521C23.5043 45.796 24.6244 46.7868 26.4375 47.5436C30.6682 49.3124 37.6016 49.3124 41.8326 47.5436C43.644 46.7867 44.7641 45.796 44.7641 44.7521L44.7638 40.0606ZM44.7638 33.0899V37.7833C44.7638 38.8272 43.6436 39.818 41.8323 40.5748C37.6016 42.3436 30.6682 42.3436 26.4372 40.5748C24.6258 39.8179 23.5039 38.8272 23.5039 37.7833V33.0917C24.2412 33.751 25.0884 34.2739 26.01 34.6337C30.5172 36.5177 37.7521 36.5177 42.259 34.6337C43.1807 34.2739 44.0279 33.751 44.7634 33.0917L44.7638 33.0899ZM44.7638 26.1564V30.8126C44.7638 31.8566 43.6436 32.8473 41.8323 33.6041C37.6016 35.3729 30.6682 35.3729 26.4372 33.6041C24.6258 32.8473 23.5039 31.8565 23.5039 30.8126V26.1601C24.2412 26.8194 25.0884 27.3405 26.01 27.7003C30.5172 29.5843 37.7521 29.5843 42.259 27.7003C43.1807 27.3405 44.0279 26.8194 44.7634 26.1601L44.7638 26.1564ZM28.0447 30.6902C27.2666 30.4775 26.5081 30.1921 25.7831 29.8377C25.6502 29.7668 25.4942 29.7526 25.3507 29.7987C25.2089 29.8448 25.0901 29.9458 25.0228 30.0805C24.9554 30.2152 24.9466 30.3712 24.9962 30.513C25.0458 30.6548 25.1504 30.77 25.2869 30.832C26.0756 31.2201 26.898 31.5321 27.7452 31.7625C27.8887 31.8068 28.0429 31.7909 28.1759 31.7182C28.307 31.6455 28.4027 31.525 28.4435 31.3797C28.4843 31.2361 28.4648 31.0819 28.3903 30.9525C28.3159 30.8214 28.1918 30.7274 28.0465 30.6902L28.0447 30.6902ZM29.8774 30.8745C29.5548 30.8745 29.2659 31.0695 29.1418 31.3672C29.0195 31.6632 29.0869 32.0053 29.3155 32.234C29.5424 32.4608 29.8845 32.5282 30.1822 32.4059C30.48 32.2818 30.6732 31.9929 30.6732 31.6703C30.6732 31.4594 30.5899 31.2574 30.4392 31.1085C30.2903 30.9596 30.0883 30.8745 29.8774 30.8745ZM31.9653 31.1368C31.6427 31.1368 31.352 31.3318 31.2297 31.6278C31.1056 31.9255 31.1748 32.2676 31.4016 32.4963C31.6285 32.7231 31.9706 32.7905 32.2683 32.6682C32.5661 32.5441 32.7593 32.2552 32.7593 31.9326C32.7593 31.4931 32.403 31.1386 31.9653 31.1368ZM28.0447 37.6238C27.2667 37.4111 26.5081 37.1258 25.7832 36.7713C25.5085 36.6331 25.1735 36.7447 25.0352 37.0194C24.897 37.2942 25.0087 37.6292 25.2834 37.7656C26.0721 38.1538 26.8945 38.4639 27.7417 38.6961C28.0377 38.7794 28.3461 38.6075 28.4294 38.3097C28.5127 38.0138 28.339 37.7071 28.043 37.6238L28.0447 37.6238ZM29.8774 37.8082C29.5548 37.8082 29.2659 38.0031 29.1419 38.2991C29.0196 38.5968 29.0869 38.9389 29.3156 39.1658C29.5424 39.3944 29.8845 39.4618 30.1823 39.3377C30.48 39.2154 30.6732 38.9248 30.6732 38.604C30.6732 38.393 30.5881 38.191 30.4393 38.0403C30.2904 37.8915 30.0883 37.8082 29.8774 37.8082ZM31.9653 38.0705C31.6427 38.0705 31.352 38.2637 31.2298 38.5614C31.1057 38.8592 31.1748 39.2013 31.4017 39.4281C31.6285 39.6568 31.9706 39.7241 32.2684 39.6018C32.5662 39.4777 32.7593 39.1871 32.7593 38.8663C32.7593 38.4267 32.4031 38.0705 31.9653 38.0705ZM28.0448 44.5556C28.3408 44.6389 28.5145 44.9473 28.4312 45.2433C28.3479 45.5393 28.0395 45.713 27.7435 45.6297C26.8963 45.3975 26.0739 45.0873 25.2852 44.6992C25.0105 44.5609 24.8988 44.2277 25.0371 43.953C25.1753 43.6783 25.5103 43.5666 25.785 43.7049C26.5099 44.0594 27.2685 44.3429 28.0466 44.5556L28.0448 44.5556ZM29.8775 44.7417C30.1983 44.7417 30.489 44.9349 30.613 45.2327C30.7353 45.5287 30.6679 45.8707 30.4411 46.0994C30.2124 46.3263 29.8704 46.3954 29.5744 46.2713C29.2766 46.149 29.0817 45.8583 29.0817 45.5375C29.0817 45.098 29.4379 44.7417 29.8775 44.7417ZM31.9653 45.004C32.2861 45.004 32.5768 45.1972 32.6991 45.495C32.8232 45.7927 32.7541 46.1348 32.5272 46.3617C32.2986 46.5903 31.9565 46.6577 31.6605 46.5336C31.3627 46.4113 31.1695 46.1207 31.1695 45.7998C31.1695 45.5889 31.2528 45.3851 31.4017 45.2362C31.5506 45.0873 31.7544 45.004 31.9653 45.004Z" fill="white"/>
<defs>
<linearGradient id="paint0_linear_38_2222" x1="0.5625" y1="11.504" x2="74.0391" y2="20.8968" gradientUnits="userSpaceOnUse">
<stop stop-color="#FF8E37"/>
<stop offset="1" stop-color="#F05306"/>
</linearGradient>
</defs>
</svg>
