<svg width="68" height="69" viewBox="0 0 68 69" fill="none" xmlns="http://www.w3.org/2000/svg">
<circle cx="34.2812" cy="34.4197" r="33.7188" fill="#5846FB"/>
<circle cx="34.2812" cy="34.4197" r="33.7188" fill="url(#paint0_linear_38_2230)"/>
<path fill-rule="evenodd" clip-rule="evenodd" d="M49.1726 30.8049C49.1435 30.5271 49.026 30.2664 48.8378 30.0615C48.6497 29.8566 48.4008 29.7185 48.1284 29.6679C46.8824 29.4231 45.9198 28.7916 45.521 27.82C45.1222 26.8485 45.3603 25.7115 46.0734 24.6457C46.2308 24.4159 46.3103 24.141 46.3001 23.8619C46.2899 23.5828 46.1905 23.3145 46.0167 23.0971C45.2883 22.1684 44.456 21.3277 43.5362 20.5918C43.3205 20.4157 43.054 20.3148 42.7767 20.3041C42.4994 20.2934 42.2261 20.3736 41.9978 20.5326C40.9421 21.2541 39.8149 21.4945 38.8494 21.0915C37.8839 20.6885 37.2548 19.7112 37.0143 18.4462C36.9645 18.1708 36.8277 17.9189 36.6243 17.7282C36.4209 17.5375 36.1618 17.4182 35.8857 17.3881C34.7206 17.2523 33.5438 17.2523 32.3787 17.3881C32.1023 17.4177 31.843 17.5368 31.6395 17.7276C31.436 17.9184 31.2993 18.1705 31.25 18.4462C31.0115 19.7097 30.3819 20.6865 29.4149 21.0915C28.448 21.4965 27.3218 21.2531 26.2666 20.5326C26.0383 20.3736 25.765 20.2934 25.4877 20.3041C25.2103 20.3148 24.9439 20.4157 24.7282 20.5918C23.8084 21.3277 22.976 22.1684 22.2477 23.0971C22.0737 23.3144 21.9741 23.5827 21.9638 23.8618C21.9535 24.1409 22.033 24.4159 22.1905 24.6457C22.906 25.7091 23.1445 26.8447 22.7429 27.82C22.3412 28.7954 21.3819 29.4211 20.136 29.6679C19.8633 29.7186 19.6142 29.857 19.426 30.0622C19.2378 30.2675 19.1205 30.5287 19.0918 30.8068C18.9599 31.9688 18.9599 33.1422 19.0918 34.3043C19.1213 34.5816 19.2389 34.842 19.4271 35.0465C19.6152 35.251 19.8639 35.3888 20.136 35.4393C21.3819 35.6841 22.3446 36.3156 22.7433 37.2872C23.1421 38.2587 22.9041 39.3957 22.191 40.4615C22.0335 40.6913 21.9539 40.9663 21.9643 41.2454C21.9746 41.5245 22.0742 41.7928 22.2482 42.0101C22.9765 42.9388 23.8089 43.7795 24.7287 44.5154C24.9444 44.6915 25.2108 44.7924 25.4881 44.8031C25.7654 44.8138 26.0387 44.7336 26.2671 44.5746C27.3227 43.8532 28.4499 43.6127 29.4154 44.0157C30.3809 44.4188 31.0101 45.3961 31.2505 46.661C31.2998 46.9367 31.4365 47.1888 31.64 47.3796C31.8435 47.5704 32.1028 47.6895 32.3791 47.7191C33.5443 47.8549 34.7211 47.8549 35.8862 47.7191C36.1623 47.689 36.4214 47.5697 36.6248 47.379C36.8282 47.1883 36.965 46.9365 37.0148 46.661C37.2533 45.397 37.883 44.4207 38.8499 44.0157C39.8168 43.6108 40.9431 43.8541 41.9982 44.5746C42.2266 44.7336 42.4999 44.8138 42.7772 44.8031C43.0545 44.7924 43.3209 44.6915 43.5366 44.5154C44.4563 43.7794 45.2887 42.9387 46.0171 42.0101C46.1909 41.7927 46.2904 41.5244 46.3006 41.2453C46.3108 40.9662 46.2313 40.6913 46.0739 40.4615C45.3584 39.3981 45.1199 38.2625 45.5215 37.2872C45.9232 36.3118 46.8824 35.6861 48.1284 35.4393C48.4011 35.3886 48.6502 35.2503 48.8384 35.045C49.0266 34.8397 49.1438 34.5785 49.1726 34.3004C49.3046 33.139 49.3046 31.9662 49.1726 30.8049ZM40.0859 38.5564C38.7084 39.9455 36.8958 40.8101 34.957 41.0029C33.0181 41.1956 31.073 40.7046 29.453 39.6134C27.833 38.5222 26.6384 36.8984 26.0727 35.0187C25.507 33.139 25.6053 31.1197 26.3507 29.3049C27.0962 27.49 28.4427 25.992 30.1609 25.0659C31.8791 24.1399 33.8626 23.8432 35.7734 24.2264C37.6842 24.6095 39.4041 25.6489 40.6401 27.1673C41.8761 28.6857 42.5516 30.5893 42.5516 32.5536C42.553 33.6686 42.3358 34.7729 41.9127 35.803C41.4896 36.8332 40.8687 37.7689 40.0859 38.5564ZM34.1322 25.346C32.4785 25.3468 30.8762 25.9257 29.5983 26.984C28.3205 28.0423 27.4461 29.5146 27.1242 31.1501C26.8022 32.7855 27.0526 34.4829 27.8328 35.9531C28.6129 37.4232 29.8745 38.5752 31.4025 39.2127C32.9306 39.8501 34.6306 39.9337 36.2129 39.4492C37.7953 38.9646 39.162 37.9419 40.0803 36.5552C40.9986 35.1685 41.4116 33.5038 41.249 31.8445C41.0864 30.1852 40.3583 28.6341 39.1886 27.4555C38.5252 26.7853 37.737 26.2539 36.8692 25.8919C36.0015 25.5299 35.0713 25.3444 34.1322 25.346ZM38.1258 31.2021L32.7665 34.9584C32.6292 35.0542 32.46 35.0916 32.2955 35.0625C32.1311 35.0334 31.9846 34.9402 31.8878 34.803L29.9845 32.1044C29.9363 32.0361 29.9019 31.9588 29.8832 31.8771C29.8646 31.7953 29.8621 31.7107 29.8759 31.6279C29.8898 31.5452 29.9196 31.4661 29.9638 31.395C30.0079 31.3239 30.0656 31.2623 30.1333 31.2137C30.2011 31.165 30.2777 31.1303 30.3588 31.1116C30.4399 31.0928 30.5238 31.0903 30.6059 31.1042C30.6879 31.1182 30.7664 31.1482 30.8369 31.1928C30.9074 31.2373 30.9685 31.2954 31.0168 31.3637L32.558 33.5444L37.4012 30.1488C37.5395 30.0532 37.7097 30.0167 37.8747 30.0472C38.0396 30.0777 38.1859 30.1727 38.2816 30.3115C38.3773 30.4504 38.4146 30.6218 38.3854 30.7883C38.3562 30.9547 38.2629 31.1028 38.1258 31.2002V31.2021Z" fill="white"/>
<defs>
<linearGradient id="paint0_linear_38_2230" x1="0.5625" y1="11.504" x2="74.0391" y2="20.8968" gradientUnits="userSpaceOnUse">
<stop stop-color="#FF8E37"/>
<stop offset="1" stop-color="#F05306"/>
</linearGradient>
</defs>
</svg>
