<svg width="68" height="69" viewBox="0 0 68 69" fill="none" xmlns="http://www.w3.org/2000/svg">
<circle cx="34.2812" cy="34.4197" r="33.7188" fill="#5846FB"/>
<circle cx="34.2812" cy="34.4197" r="33.7188" fill="url(#paint0_linear_38_2195)"/>
<path d="M19.9629 24.9921C19.9629 29.1658 20.9854 42.7929 33.6735 50.2359C33.9027 50.3691 34.1631 50.4392 34.4282 50.4392C34.6933 50.4392 34.9537 50.3691 35.1829 50.2359C47.8709 42.7894 48.8935 29.1762 48.8935 24.9921C48.8942 24.6493 48.7766 24.3167 48.5606 24.0505C48.3445 23.7844 48.0431 23.601 47.7075 23.5313C41.9061 22.3279 37.2246 19.1385 35.3325 17.7055C35.0726 17.5075 34.7549 17.4003 34.4282 17.4003C34.1015 17.4003 33.7838 17.5075 33.5239 17.7055C31.6318 19.1385 26.9503 22.3279 21.1489 23.5313C20.8132 23.601 20.5119 23.7844 20.2958 24.0505C20.0797 24.3167 19.9621 24.6493 19.9629 24.9921ZM28.1085 34.5081L29.152 33.4647C29.2912 33.3279 29.4785 33.2512 29.6737 33.2512C29.8688 33.2512 30.0562 33.3279 30.1954 33.4647L31.9205 35.1376C32.0601 35.2736 32.2473 35.3497 32.4422 35.3497C32.6371 35.3497 32.8243 35.2736 32.9639 35.1376L40.0592 28.0424C40.1988 27.9064 40.386 27.8303 40.5809 27.8303C40.7758 27.8303 40.963 27.9064 41.1026 28.0424L42.146 29.0858C42.282 29.2254 42.3581 29.4126 42.3581 29.6075C42.3581 29.8024 42.282 29.9896 42.146 30.1292L32.9778 39.3739C32.8382 39.5099 32.651 39.586 32.4561 39.586C32.2612 39.586 32.074 39.5099 31.9344 39.3739L28.1085 35.548C27.9728 35.409 27.8968 35.2224 27.8968 35.0281C27.8968 34.8337 27.9728 34.6471 28.1085 34.5081Z" fill="white"/>
<defs>
<linearGradient id="paint0_linear_38_2195" x1="0.5625" y1="11.504" x2="74.0391" y2="20.8968" gradientUnits="userSpaceOnUse">
<stop stop-color="#FF8E37"/>
<stop offset="1" stop-color="#F05306"/>
</linearGradient>
</defs>
</svg>
