<svg width="68" height="69" viewBox="0 0 68 69" fill="none" xmlns="http://www.w3.org/2000/svg">
<circle cx="34.2812" cy="34.4197" r="33.7188" fill="#5846FB"/>
<circle cx="34.2812" cy="34.4197" r="33.7188" fill="url(#paint0_linear_38_2180)"/>
<path d="M25.7334 40.0288C25.6054 40.0363 25.4853 40.0928 25.3981 40.1867C25.3108 40.2805 25.2631 40.4045 25.265 40.5326V45.0265C25.265 45.1334 25.2226 45.2359 25.147 45.3115C25.0714 45.387 24.9689 45.4295 24.862 45.4295H22.6251C22.497 45.4276 22.3731 45.4753 22.2792 45.5625C22.1854 45.6498 22.1288 45.7699 22.1213 45.8978C22.1193 45.9626 22.1303 46.0272 22.1537 46.0876C22.177 46.1481 22.2123 46.2032 22.2575 46.2498C22.3026 46.2963 22.3566 46.3333 22.4163 46.3586C22.476 46.3838 22.5402 46.3968 22.605 46.3968H25.6399C25.7382 46.3984 25.8356 46.3768 25.9241 46.3338C26.0126 46.2909 26.0897 46.2277 26.1493 46.1493C26.1842 46.1052 26.2091 46.054 26.2222 45.9993C26.2353 45.9446 26.2363 45.8877 26.2251 45.8325C26.2295 45.8059 26.2319 45.779 26.2323 45.7519V40.5125C26.2324 40.4476 26.2194 40.3835 26.1941 40.3238C26.1688 40.2641 26.1318 40.21 26.0853 40.1649C26.0387 40.1198 25.9836 40.0845 25.9231 40.0611C25.8627 40.0377 25.7981 40.0268 25.7334 40.0288Z" fill="white"/>
<path d="M44.5127 45.4295H42.7595C42.6526 45.4295 42.5501 45.387 42.4745 45.3115C42.3989 45.2359 42.3565 45.1334 42.3565 45.0265V40.5326C42.3583 40.4045 42.3107 40.2805 42.2234 40.1867C42.1362 40.0928 42.0161 40.0363 41.8881 40.0288C41.8233 40.0268 41.7588 40.0377 41.6983 40.0611C41.6379 40.0845 41.5827 40.1198 41.5362 40.1649C41.4897 40.21 41.4526 40.2641 41.4274 40.3238C41.4021 40.3835 41.3891 40.4476 41.3892 40.5125V45.7519C41.3895 45.779 41.3919 45.8059 41.3964 45.8325C41.3852 45.8878 41.3862 45.9447 41.3991 45.9996C41.412 46.0544 41.4367 46.1058 41.4714 46.1501C41.5296 46.228 41.6055 46.291 41.6928 46.3339C41.7801 46.3768 41.8763 46.3983 41.9736 46.3968H44.5329C44.5976 46.3968 44.6617 46.3839 44.7214 46.3586C44.781 46.3334 44.835 46.2965 44.8801 46.25C44.9252 46.2036 44.9605 46.1485 44.9839 46.0882C45.0074 46.0278 45.0184 45.9634 45.0165 45.8986C45.0092 45.7706 44.9528 45.6502 44.8589 45.5628C44.765 45.4754 44.641 45.4276 44.5127 45.4295Z" fill="white"/>
<path d="M33.7946 40.0288C33.6666 40.0363 33.5465 40.0928 33.4593 40.1867C33.372 40.2805 33.3243 40.4045 33.3262 40.5326V45.7318C33.3243 45.8599 33.372 45.9838 33.4593 46.0777C33.5465 46.1716 33.6666 46.2281 33.7946 46.2356C33.8593 46.2376 33.9239 46.2266 33.9843 46.2033C34.0448 46.1799 34.0999 46.1446 34.1465 46.0995C34.193 46.0543 34.23 46.0003 34.2553 45.9406C34.2805 45.8809 34.2935 45.8168 34.2935 45.7519V40.5125C34.2935 40.4476 34.2805 40.3835 34.2553 40.3238C34.23 40.2641 34.193 40.21 34.1465 40.1649C34.0999 40.1198 34.0448 40.0845 33.9843 40.0611C33.9239 40.0377 33.8593 40.0268 33.7946 40.0288Z" fill="white"/>
<path d="M48.9164 30.5949C48.9164 30.5143 48.9228 30.4281 48.9228 30.3443C48.9234 29.4483 48.7309 28.5627 48.3585 27.7478C47.9862 26.9329 47.4426 26.2078 46.7648 25.6219C46.0871 25.0359 45.291 24.6028 44.4309 24.3521C43.5707 24.1014 42.6666 24.0389 41.7802 24.1689C41.1869 22.5316 40.1037 21.1168 38.6779 20.1169C37.252 19.117 35.5528 18.5806 33.8113 18.5806C32.0698 18.5806 30.3706 19.117 28.9448 20.1169C27.519 21.1168 26.4358 22.5316 25.8425 24.1689C24.956 24.0389 24.0519 24.1014 23.1918 24.3521C22.3316 24.6028 21.5356 25.0359 20.8578 25.6219C20.1801 26.2078 19.6365 26.9329 19.2641 27.7478C18.8917 28.5627 18.6993 29.4483 18.6998 30.3443C18.6998 30.4249 18.6998 30.5119 18.7063 30.5949C17.4477 30.6751 16.267 31.2317 15.4043 32.1516C14.5416 33.0715 14.0618 34.2855 14.0625 35.5467V35.5507C14.0625 36.8659 14.585 38.1272 15.5149 39.0572C16.4449 39.9872 17.7063 40.5097 19.0215 40.5097H48.6044C49.9191 40.5088 51.1796 39.986 52.1089 39.0561C53.0381 38.1262 53.5602 36.8653 53.5602 35.5507V35.5467C53.5609 34.2855 53.0811 33.0715 52.2184 32.1516C51.3557 31.2317 50.1749 30.6751 48.9164 30.5949Z" fill="white"/>
<path d="M33.8142 50.5038C35.1052 50.5038 36.1518 49.4573 36.1518 48.1662C36.1518 46.8752 35.1052 45.8286 33.8142 45.8286C32.5231 45.8286 31.4766 46.8752 31.4766 48.1662C31.4766 49.4573 32.5231 50.5038 33.8142 50.5038Z" fill="white"/>
<path d="M47.3552 48.2448C48.6462 48.2448 49.6928 47.1982 49.6928 45.9072C49.6928 44.6162 48.6462 43.5696 47.3552 43.5696C46.0642 43.5696 45.0176 44.6162 45.0176 45.9072C45.0176 47.1982 46.0642 48.2448 47.3552 48.2448Z" fill="white"/>
<path d="M20.2732 48.2448C21.5642 48.2448 22.6108 47.1982 22.6108 45.9072C22.6108 44.6162 21.5642 43.5696 20.2732 43.5696C18.9821 43.5696 17.9355 44.6162 17.9355 45.9072C17.9355 47.1982 18.9821 48.2448 20.2732 48.2448Z" fill="white"/>
<defs>
<linearGradient id="paint0_linear_38_2180" x1="0.5625" y1="11.504" x2="74.0391" y2="20.8968" gradientUnits="userSpaceOnUse">
<stop stop-color="#FF8E37"/>
<stop offset="1" stop-color="#F05306"/>
</linearGradient>
</defs>
</svg>
