<svg width="45" height="60" viewBox="0 0 45 60" fill="none" xmlns="http://www.w3.org/2000/svg">
<path d="M37.8473 23.8423H37.0964V14.7372C37.0964 10.8286 35.5437 7.08017 32.78 4.31641C30.0162 1.55266 26.2677 0 22.3592 0C18.4507 0 14.7022 1.55266 11.9384 4.31641C9.17469 7.08017 7.62203 10.8286 7.62203 14.7372V23.8423H6.87109C5.04704 23.8473 3.2994 24.5754 2.01135 25.8669C0.723311 27.1585 -6.77133e-06 28.9081 0 30.7322V53.1289C0 54.9512 0.723912 56.6989 2.01249 57.9875C3.30107 59.2761 5.04876 60 6.87109 60H37.8473C39.6696 60 41.4173 59.2761 42.7059 57.9875C43.9945 56.6989 44.7184 54.9512 44.7184 53.1289V30.6008C44.684 28.7996 43.9456 27.0835 42.6612 25.8202C41.3769 24.5569 39.6488 23.8469 37.8473 23.8423ZM25.1752 43.2541C25.1752 44.0009 24.8785 44.7172 24.3504 45.2453C23.8223 45.7734 23.1061 46.0701 22.3592 46.0701C21.6123 46.0701 20.8961 45.7734 20.368 45.2453C19.8399 44.7172 19.5432 44.0009 19.5432 43.2541V38.5795C19.5432 37.8326 19.8399 37.1164 20.368 36.5882C20.8961 36.0601 21.6123 35.7635 22.3592 35.7635C23.1061 35.7635 23.8223 36.0601 24.3504 36.5882C24.8785 37.1164 25.1752 37.8326 25.1752 38.5795V43.2541ZM31.4643 23.8423H13.2541V14.7372C13.2541 12.3223 14.2134 10.0064 15.9209 8.29887C17.6284 6.59133 19.9444 5.63204 22.3592 5.63204C24.774 5.63204 27.09 6.59133 28.7975 8.29887C30.505 10.0064 31.4643 12.3223 31.4643 14.7372V23.8423Z" fill="white"/>
</svg>
