<svg width="15" height="15" viewBox="0 0 15 15" fill="none" xmlns="http://www.w3.org/2000/svg">
<g clip-path="url(#clip0_38_2061)">
<path fill-rule="evenodd" clip-rule="evenodd" d="M6.69311 1.051C6.79215 0.745389 7.07702 0.538818 7.39772 0.538818C7.71843 0.538818 8.00235 0.745389 8.10139 1.051L9.34364 4.87869C9.38042 4.99094 9.45211 5.08904 9.54738 5.15884C9.64359 5.22864 9.75962 5.26638 9.87752 5.26638L13.9024 5.26448C14.2231 5.26448 14.507 5.47105 14.606 5.77666C14.7051 6.08133 14.5966 6.41526 14.3372 6.60391L11.0811 8.96862C10.9849 9.03842 10.9132 9.13652 10.8764 9.24877C10.8396 9.36196 10.8406 9.48365 10.8764 9.59589L12.1215 13.4227C12.2206 13.7283 12.1121 14.0622 11.8527 14.2508C11.5933 14.4395 11.2415 14.4395 10.9821 14.2508L7.72787 11.8842C7.63165 11.8144 7.51657 11.7767 7.39772 11.7767C7.27887 11.7767 7.16379 11.8144 7.06758 11.8842L3.81244 14.2508C3.55304 14.4395 3.20213 14.4395 2.94273 14.2508C2.6824 14.0622 2.57395 13.7283 2.67393 13.4227L3.91808 9.59589C3.95487 9.48365 3.95487 9.36196 3.91808 9.24877C3.88224 9.13652 3.81055 9.03842 3.71433 8.96862L0.45824 6.60391C0.198846 6.41526 0.0894189 6.08133 0.18846 5.77666C0.288445 5.47105 0.572371 5.26448 0.893076 5.26448L4.91697 5.26638C5.03582 5.26638 5.15185 5.22864 5.24711 5.15884C5.34333 5.08904 5.41502 4.99094 5.45086 4.87869L6.69311 1.051Z" fill="#F6BB06"/>
</g>
<defs>
<clipPath id="clip0_38_2061">
<rect width="14.8475" height="13.9195" fill="white" transform="translate(0.152344 0.539062)"/>
</clipPath>
</defs>
</svg>
