<svg width="51" height="50" viewBox="0 0 51 50" fill="none" xmlns="http://www.w3.org/2000/svg">
<path d="M40.0025 0.171387H23.4619C20.7212 0.174615 18.0936 1.26481 16.1556 3.20283C14.2176 5.14085 13.1274 7.76844 13.1241 10.5092V20.847H11.0566C8.3158 20.8503 5.68821 21.9404 3.75019 23.8785C1.81217 25.8165 0.721978 28.4441 0.71875 31.1848L0.71875 39.4551C0.721978 42.1959 1.81217 44.8235 3.75019 46.7615C5.68821 48.6995 8.3158 49.7897 11.0566 49.7929H19.3268C22.0676 49.7897 24.6952 48.6995 26.6332 46.7615C28.5712 44.8235 29.6614 42.1959 29.6646 39.4551V37.3875H40.0025C42.7432 37.3843 45.3708 36.2941 47.3088 34.3561C49.2469 32.4181 50.337 29.7905 50.3403 27.0497V10.5092C50.337 7.76844 49.2469 5.14085 47.3088 3.20283C45.3708 1.26481 42.7432 0.174615 40.0025 0.171387ZM25.5295 39.4551C25.5277 41.0996 24.8736 42.6762 23.7108 43.8391C22.548 45.0019 20.9713 45.656 19.3268 45.6578H11.0566C9.41207 45.656 7.83544 45.0019 6.6726 43.8391C5.50976 42.6762 4.85568 41.0996 4.85388 39.4551V31.1848C4.85568 29.5403 5.50976 27.9637 6.6726 26.8009C7.83544 25.638 9.41207 24.984 11.0566 24.9821H13.1241V27.0497C13.1274 29.7905 14.2176 32.4181 16.1556 34.3561C18.0936 36.2941 20.7212 37.3843 23.4619 37.3875H25.5295V39.4551ZM25.5295 33.2524H23.4619C21.8174 33.2506 20.2408 32.5965 19.078 31.4337C17.9151 30.2708 17.2611 28.6942 17.2593 27.0497V24.9821H19.3268C20.9713 24.984 22.548 25.638 23.7108 26.8009C24.8736 27.9637 25.5277 29.5403 25.5295 31.1848V33.2524ZM46.2051 27.0497C46.2033 28.6942 45.5493 30.2708 44.3864 31.4337C43.2236 32.5965 41.647 33.2506 40.0025 33.2524H29.6646V31.1848C29.6614 28.4441 28.5712 25.8165 26.6332 23.8785C24.6952 21.9404 22.0676 20.8503 19.3268 20.847H17.2593V10.5092C17.2611 8.8647 17.9151 7.28807 19.078 6.12523C20.2408 4.9624 21.8174 4.30832 23.4619 4.30651H40.0025C41.647 4.30832 43.2236 4.9624 44.3864 6.12523C45.5493 7.28807 46.2033 8.8647 46.2051 10.5092V27.0497Z" fill="#00B4FF"/>
<path d="M40.0025 0.171387H23.4619C20.7212 0.174615 18.0936 1.26481 16.1556 3.20283C14.2176 5.14085 13.1274 7.76844 13.1241 10.5092V20.847H11.0566C8.3158 20.8503 5.68821 21.9404 3.75019 23.8785C1.81217 25.8165 0.721978 28.4441 0.71875 31.1848L0.71875 39.4551C0.721978 42.1959 1.81217 44.8235 3.75019 46.7615C5.68821 48.6995 8.3158 49.7897 11.0566 49.7929H19.3268C22.0676 49.7897 24.6952 48.6995 26.6332 46.7615C28.5712 44.8235 29.6614 42.1959 29.6646 39.4551V37.3875H40.0025C42.7432 37.3843 45.3708 36.2941 47.3088 34.3561C49.2469 32.4181 50.337 29.7905 50.3403 27.0497V10.5092C50.337 7.76844 49.2469 5.14085 47.3088 3.20283C45.3708 1.26481 42.7432 0.174615 40.0025 0.171387ZM25.5295 39.4551C25.5277 41.0996 24.8736 42.6762 23.7108 43.8391C22.548 45.0019 20.9713 45.656 19.3268 45.6578H11.0566C9.41207 45.656 7.83544 45.0019 6.6726 43.8391C5.50976 42.6762 4.85568 41.0996 4.85388 39.4551V31.1848C4.85568 29.5403 5.50976 27.9637 6.6726 26.8009C7.83544 25.638 9.41207 24.984 11.0566 24.9821H13.1241V27.0497C13.1274 29.7905 14.2176 32.4181 16.1556 34.3561C18.0936 36.2941 20.7212 37.3843 23.4619 37.3875H25.5295V39.4551ZM25.5295 33.2524H23.4619C21.8174 33.2506 20.2408 32.5965 19.078 31.4337C17.9151 30.2708 17.2611 28.6942 17.2593 27.0497V24.9821H19.3268C20.9713 24.984 22.548 25.638 23.7108 26.8009C24.8736 27.9637 25.5277 29.5403 25.5295 31.1848V33.2524ZM46.2051 27.0497C46.2033 28.6942 45.5493 30.2708 44.3864 31.4337C43.2236 32.5965 41.647 33.2506 40.0025 33.2524H29.6646V31.1848C29.6614 28.4441 28.5712 25.8165 26.6332 23.8785C24.6952 21.9404 22.0676 20.8503 19.3268 20.847H17.2593V10.5092C17.2611 8.8647 17.9151 7.28807 19.078 6.12523C20.2408 4.9624 21.8174 4.30832 23.4619 4.30651H40.0025C41.647 4.30832 43.2236 4.9624 44.3864 6.12523C45.5493 7.28807 46.2033 8.8647 46.2051 10.5092V27.0497Z" fill="url(#paint0_linear_38_2433)"/>
<path d="M39.9984 8.43701H33.7957C33.2473 8.43701 32.7214 8.65484 32.3337 9.04259C31.9459 9.43033 31.7281 9.95622 31.7281 10.5046C31.7281 11.0529 31.9459 11.5788 32.3337 11.9666C32.7214 12.3543 33.2473 12.5721 33.7957 12.5721H35.0064L28.1994 19.3794C27.8116 19.7671 27.5938 20.293 27.5938 20.8414C27.5937 21.3898 27.8116 21.9157 28.1993 22.3034C28.587 22.6912 29.1129 22.9091 29.6613 22.9091C30.2097 22.9091 30.7356 22.6913 31.1233 22.3035L37.9308 15.4961V16.7073C37.9308 17.2556 38.1486 17.7815 38.5364 18.1693C38.9241 18.557 39.45 18.7748 39.9984 18.7748C40.5467 18.7748 41.0726 18.557 41.4603 18.1693C41.8481 17.7815 42.0659 17.2556 42.0659 16.7073V10.5046C42.0659 9.95622 41.8481 9.43033 41.4603 9.04259C41.0726 8.65484 40.5467 8.43701 39.9984 8.43701Z" fill="#00B4FF"/>
<path d="M39.9984 8.43701H33.7957C33.2473 8.43701 32.7214 8.65484 32.3337 9.04259C31.9459 9.43033 31.7281 9.95622 31.7281 10.5046C31.7281 11.0529 31.9459 11.5788 32.3337 11.9666C32.7214 12.3543 33.2473 12.5721 33.7957 12.5721H35.0064L28.1994 19.3794C27.8116 19.7671 27.5938 20.293 27.5938 20.8414C27.5937 21.3898 27.8116 21.9157 28.1993 22.3034C28.587 22.6912 29.1129 22.9091 29.6613 22.9091C30.2097 22.9091 30.7356 22.6913 31.1233 22.3035L37.9308 15.4961V16.7073C37.9308 17.2556 38.1486 17.7815 38.5364 18.1693C38.9241 18.557 39.45 18.7748 39.9984 18.7748C40.5467 18.7748 41.0726 18.557 41.4603 18.1693C41.8481 17.7815 42.0659 17.2556 42.0659 16.7073V10.5046C42.0659 9.95622 41.8481 9.43033 41.4603 9.04259C41.0726 8.65484 40.5467 8.43701 39.9984 8.43701Z" fill="url(#paint1_linear_38_2433)"/>
<defs>
<linearGradient id="paint0_linear_38_2433" x1="0.71875" y1="8.12047" x2="54.7839" y2="15.0318" gradientUnits="userSpaceOnUse">
<stop stop-color="#FF8E37"/>
<stop offset="1" stop-color="#F05306"/>
</linearGradient>
<linearGradient id="paint1_linear_38_2433" x1="27.5937" y1="10.7554" x2="43.3619" y2="12.7711" gradientUnits="userSpaceOnUse">
<stop stop-color="#FF8E37"/>
<stop offset="1" stop-color="#F05306"/>
</linearGradient>
</defs>
</svg>
