<svg width="60" height="60" viewBox="0 0 60 60" fill="none" xmlns="http://www.w3.org/2000/svg">
<path d="M30 54.0388C43.2763 54.0388 54.0388 43.2763 54.0388 30C54.0388 16.7237 43.2763 5.96116 30 5.96116C16.7237 5.96116 5.96113 16.7237 5.96113 30C5.96113 43.2763 16.7237 54.0388 30 54.0388ZM58.7755 30C58.7755 45.8922 45.8923 58.7755 30 58.7755C14.1077 58.7755 1.22449 45.8922 1.22449 30C1.22449 14.1077 14.1077 1.22449 30 1.22449C45.8923 1.22449 58.7755 14.1077 58.7755 30Z" fill="white" stroke="url(#paint0_linear_5_641)" stroke-width="2.44898"/>
<path fill-rule="evenodd" clip-rule="evenodd" d="M50.2991 29.1123L49.5199 27.8734L49.5004 27.8449C49.2254 27.4424 48.466 26.3308 48.0005 25.7147C47.0494 24.4559 45.6702 22.7707 43.9612 21.0762C40.6409 17.7844 35.6406 14.0224 29.8399 14.0079C24.0261 13.9933 19.0955 17.7437 15.8431 21.0294C14.1698 22.7197 12.8275 24.4021 11.9042 25.6588C11.4521 26.2743 10.7167 27.3857 10.4507 27.7876L10.4321 27.8156L9.70026 29.0211L10.4147 30.2371L10.4231 30.2508C10.4973 30.3719 10.6925 30.6909 10.8118 30.8771C11.0596 31.2643 11.4203 31.8094 11.8825 32.4599C12.8039 33.7569 14.1442 35.4942 15.815 37.2417C19.0561 40.6314 23.9902 44.5321 29.8285 44.5467C35.6581 44.5612 40.6689 40.6946 43.9815 37.3278C45.6897 35.5915 47.0678 33.8635 48.0179 32.5729C48.4945 31.9256 48.8671 31.3831 49.1234 30.9979C49.2517 30.8052 49.4546 30.4869 49.5236 30.3786L50.2991 29.1123ZM44.771 29.147C44.6389 28.9651 44.4926 28.7669 44.3325 28.5551C43.4754 27.4207 42.2413 25.9147 40.7299 24.4163C37.6094 21.3225 33.7408 18.6927 29.8285 18.6829C25.9294 18.6732 22.1422 21.2705 19.105 24.3387C17.6335 25.8252 16.4381 27.3213 15.6098 28.4488C15.4477 28.6694 15.3002 28.8751 15.1681 29.0631C15.3058 29.2659 15.4605 29.4895 15.6314 29.7301C16.4615 30.8984 17.6591 32.4486 19.1331 33.9901C22.1816 37.1785 25.9654 39.8619 29.8399 39.8716C33.7234 39.8814 37.5815 37.2079 40.7096 34.0285C42.2218 32.4916 43.4569 30.945 44.315 29.7793C44.4821 29.5523 44.6344 29.3406 44.771 29.147Z" fill="white"/>
<path d="M37.3687 29.4669C37.3687 33.4354 34.1516 36.6524 30.1831 36.6524C26.2146 36.6524 22.9974 33.4354 22.9974 29.4669C22.9974 25.4983 26.2146 22.2812 30.1831 22.2812C34.1516 22.2812 37.3687 25.4983 37.3687 29.4669Z" fill="white"/>
<defs>
<linearGradient id="paint0_linear_5_641" x1="-1.95359e-07" y1="9.61165" x2="65.373" y2="17.9685" gradientUnits="userSpaceOnUse">
<stop stop-color="#FF8E37"/>
<stop offset="1" stop-color="#F05306"/>
</linearGradient>
</defs>
</svg>
