<svg width="25" height="24" viewBox="0 0 25 24" fill="none" xmlns="http://www.w3.org/2000/svg">
<path d="M12.6774 12.2174C11.9547 12.2862 11.3352 12.1141 10.7158 11.8044C7.68723 10.2901 4.65869 8.77586 1.59575 7.22718C1.35484 7.12393 1.11393 6.98627 0.941858 6.8142C0.425631 6.3668 0.425631 5.85057 0.941858 5.43759C1.14835 5.26552 1.42367 5.12786 1.69899 4.99019C4.65869 3.51034 7.65281 2.03049 10.6125 0.516227C11.9891 -0.172076 13.3657 -0.172076 14.7423 0.516227C17.702 1.99608 20.6617 3.47593 23.6558 4.95578C23.8279 5.05903 24.0344 5.12786 24.2065 5.26552C25.0325 5.78174 24.998 6.43563 24.1721 6.98627C24 7.12393 23.8279 7.19276 23.6558 7.29601C20.6617 8.77586 17.6676 10.2901 14.6735 11.8044C14.054 12.1141 13.4001 12.3206 12.6774 12.2174Z" fill="white"/>
<path d="M12.4738 18.2062C11.7855 18.2751 11.1316 18.0686 10.4777 17.7588C7.38038 16.2102 4.31743 14.6615 1.22007 13.1128C0.738255 12.8719 0.359688 12.5622 0.497349 11.9427C0.566179 11.4953 0.910331 11.22 1.35773 11.1511C1.73629 11.0823 2.08045 11.2888 2.39018 11.4609C5.21222 12.8719 8.06868 14.2829 10.8563 15.7284C12.0953 16.3478 13.1965 16.3822 14.4355 15.7284C17.2231 14.2829 20.0451 12.9063 22.8328 11.4953C23.0737 11.3576 23.349 11.22 23.6243 11.1511C24.1061 11.0479 24.4847 11.2544 24.7256 11.7018C24.9665 12.1148 24.8289 12.5277 24.4847 12.8375C24.2782 13.0096 24.0373 13.1472 23.8308 13.2505C20.9744 14.6959 18.1523 16.1413 15.2959 17.5524C14.4355 17.9998 13.5063 18.2407 12.4738 18.2062Z" fill="white"/>
<path d="M12.6794 23.9908C11.8534 24.0596 11.0963 23.8187 10.3391 23.4402C7.37943 21.9603 4.45415 20.5149 1.49445 19.035C1.25354 18.8974 0.978219 18.7597 0.771728 18.5876C0.427577 18.2779 0.358746 17.8649 0.599652 17.4519C0.874973 17.039 1.21912 16.798 1.73535 16.9701C1.97626 17.039 2.21716 17.1766 2.45807 17.2799C5.28011 18.6909 8.13657 20.1019 10.9242 21.5473C12.0943 22.1668 13.1956 22.1668 14.3657 21.5473C17.2566 20.0675 20.1474 18.622 23.0383 17.1766C23.4513 16.9701 23.8299 16.7636 24.2773 17.0389C24.8967 17.3831 24.9656 18.2435 24.4149 18.6909C24.2084 18.863 23.9675 18.9662 23.7266 19.0694C20.8358 20.5149 17.9105 21.9603 15.0196 23.4057C14.3313 23.7843 13.5397 24.0596 12.6794 23.9908Z" fill="white"/>
</svg>
