<svg width="53" height="60" viewBox="0 0 53 60" fill="none" xmlns="http://www.w3.org/2000/svg">
<path d="M51.675 10.0407L42.4593 0.825039C42.1998 0.561937 41.8903 0.353408 41.5489 0.211725C41.2076 0.0700422 40.8414 -0.0019317 40.4718 3.94176e-05H11.25C10.5047 0.00221593 9.79063 0.299231 9.26366 0.826205C8.73669 1.35318 8.43967 2.06729 8.43749 2.81254V24.4594C7.12694 24.679 5.93672 25.3563 5.07845 26.3707C4.22018 27.3852 3.74947 28.6712 3.75 30V32.8125H2.8125C2.06725 32.8147 1.35314 33.1117 0.826166 33.6387C0.299191 34.1657 0.00217651 34.8798 0 35.625V46.875C0.00217651 47.6203 0.299191 48.3344 0.826166 48.8613C1.35314 49.3883 2.06725 49.6853 2.8125 49.6875H8.43749V57.1875C8.43967 57.9328 8.73669 58.6469 9.26366 59.1738C9.79063 59.7008 10.5047 59.9978 11.25 60H49.6875C50.4327 59.9978 51.1468 59.7008 51.6738 59.1738C52.2008 58.6469 52.4978 57.9328 52.5 57.1875V12.0282C52.5019 11.6586 52.43 11.2924 52.2883 10.951C52.1466 10.6097 51.9381 10.3002 51.675 10.0407ZM5.625 30C5.62426 29.1688 5.9003 28.361 6.40956 27.704C6.91883 27.0471 7.63233 26.5784 8.43749 26.3719C8.74287 26.2882 9.05836 26.2472 9.37499 26.25C9.86749 26.2499 10.3552 26.3468 10.8102 26.5352C11.2652 26.7236 11.6787 26.9998 12.0269 27.3481C12.3752 27.6963 12.6514 28.1098 12.8398 28.5648C13.0282 29.0198 13.1251 29.5075 13.125 30V32.8125H5.625V30ZM2.8125 47.8125C2.56408 47.8118 2.32604 47.7128 2.15038 47.5371C1.97472 47.3615 1.87572 47.1234 1.875 46.875V35.625C1.87572 35.3766 1.97472 35.1386 2.15038 34.9629C2.32604 34.7872 2.56408 34.6882 2.8125 34.6875H15.9375C16.1859 34.6882 16.4239 34.7872 16.5996 34.9629C16.7753 35.1386 16.8743 35.3766 16.875 35.625V46.875C16.8743 47.1234 16.7753 47.3615 16.5996 47.5371C16.4239 47.7128 16.1859 47.8118 15.9375 47.8125H2.8125ZM43.125 49.6875H21.5625C21.3138 49.6875 21.0754 49.5887 20.8996 49.4129C20.7238 49.2371 20.625 48.9986 20.625 48.75C20.625 48.5014 20.7238 48.2629 20.8996 48.0871C21.0754 47.9113 21.3138 47.8125 21.5625 47.8125H43.125C43.3736 47.8125 43.6121 47.9113 43.7879 48.0871C43.9637 48.2629 44.0625 48.5014 44.0625 48.75C44.0625 48.9986 43.9637 49.2371 43.7879 49.4129C43.6121 49.5887 43.3736 49.6875 43.125 49.6875ZM43.125 39.375H21.5625C21.3138 39.375 21.0754 39.2762 20.8996 39.1004C20.7238 38.9246 20.625 38.6862 20.625 38.4375C20.625 38.1889 20.7238 37.9504 20.8996 37.7746C21.0754 37.5988 21.3138 37.5 21.5625 37.5H43.125C43.3736 37.5 43.6121 37.5988 43.7879 37.7746C43.9637 37.9504 44.0625 38.1889 44.0625 38.4375C44.0625 38.6862 43.9637 38.9246 43.7879 39.1004C43.6121 39.2762 43.3736 39.375 43.125 39.375ZM43.125 29.0625H17.8125C17.5638 29.0625 17.3254 28.9637 17.1496 28.7879C16.9738 28.6121 16.875 28.3737 16.875 28.125C16.875 27.8764 16.9738 27.6379 17.1496 27.4621C17.3254 27.2863 17.5638 27.1875 17.8125 27.1875H43.125C43.3736 27.1875 43.6121 27.2863 43.7879 27.4621C43.9637 27.6379 44.0625 27.8764 44.0625 28.125C44.0625 28.3737 43.9637 28.6121 43.7879 28.7879C43.6121 28.9637 43.3736 29.0625 43.125 29.0625ZM43.125 18.75H17.8125C17.5638 18.75 17.3254 18.6513 17.1496 18.4754C16.9738 18.2996 16.875 18.0612 16.875 17.8125C16.875 17.5639 16.9738 17.3254 17.1496 17.1496C17.3254 16.9738 17.5638 16.875 17.8125 16.875H43.125C43.3736 16.875 43.6121 16.9738 43.7879 17.1496C43.9637 17.3254 44.0625 17.5639 44.0625 17.8125C44.0625 18.0612 43.9637 18.2996 43.7879 18.4754C43.6121 18.6513 43.3736 18.75 43.125 18.75ZM46.875 12.1875H43.125C42.3797 12.1854 41.6656 11.8883 41.1386 11.3614C40.6117 10.8344 40.3146 10.1203 40.3125 9.37503V5.62504C40.3125 5.3764 40.4112 5.13794 40.5871 4.96212C40.7629 4.78631 41.0013 4.68754 41.25 4.68754C41.4986 4.68754 41.7371 4.78631 41.9129 4.96212C42.0887 5.13794 42.1875 5.3764 42.1875 5.62504V9.37503C42.1882 9.62345 42.2872 9.86149 42.4628 10.0372C42.6385 10.2128 42.8765 10.3118 43.125 10.3125H46.875C47.1236 10.3125 47.3621 10.4113 47.5379 10.5871C47.7137 10.7629 47.8125 11.0014 47.8125 11.25C47.8125 11.4987 47.7137 11.7371 47.5379 11.9129C47.3621 12.0888 47.1236 12.1875 46.875 12.1875Z" fill="white"/>
<path d="M9.375 37.5C8.96235 37.4997 8.56116 37.6357 8.23368 37.8868C7.90621 38.1378 7.67077 38.49 7.56391 38.8886C7.45706 39.2871 7.48476 39.7098 7.64272 40.0911C7.80068 40.4723 8.08006 40.7907 8.4375 40.9969V44.0625C8.4375 44.3111 8.53627 44.5496 8.71209 44.7254C8.8879 44.9012 9.12636 45 9.375 45C9.62364 45 9.8621 44.9012 10.0379 44.7254C10.2137 44.5496 10.3125 44.3111 10.3125 44.0625V40.9969C10.6699 40.7907 10.9493 40.4723 11.1073 40.0911C11.2652 39.7098 11.2929 39.2871 11.1861 38.8886C11.0792 38.49 10.8438 38.1378 10.5163 37.8868C10.1888 37.6357 9.78765 37.4997 9.375 37.5Z" fill="white"/>
</svg>
