<svg width="95" height="95" viewBox="0 0 95 95" fill="none" xmlns="http://www.w3.org/2000/svg">
<path d="M48.2384 21.6562C48.8541 21.6562 49.4561 21.8388 49.9681 22.181C50.4801 22.5231 50.8791 23.0093 51.1148 23.5782C51.3504 24.1471 51.4121 24.7731 51.2919 25.377C51.1718 25.981 50.8753 26.5357 50.4399 26.9711C50.0045 27.4065 49.4497 27.7031 48.8458 27.8232C48.2418 27.9433 47.6158 27.8817 47.0469 27.646C46.478 27.4104 45.9918 27.0113 45.6497 26.4993C45.3076 25.9873 45.125 25.3854 45.125 24.7696C45.1257 23.9441 45.4539 23.1526 46.0377 22.5689C46.6214 21.9852 47.4129 21.6569 48.2384 21.6562Z" fill="white"/>
<path d="M28.3478 50.5861C30.0672 50.5861 31.4611 49.1922 31.4611 47.4728C31.4611 45.7533 30.0672 44.3594 28.3478 44.3594C26.6283 44.3594 25.2344 45.7533 25.2344 47.4728C25.2344 49.1922 26.6283 50.5861 28.3478 50.5861Z" fill="white"/>
<path d="M47.7502 72.1446C47.7502 72.7604 47.5676 73.3623 47.2255 73.8743C46.8834 74.3863 46.3972 74.7854 45.8283 75.021C45.2594 75.2567 44.6334 75.3183 44.0294 75.1982C43.4255 75.0781 42.8707 74.7815 42.4353 74.3461C41.9999 73.9107 41.7034 73.356 41.5833 72.752C41.4631 72.1481 41.5248 71.5221 41.7604 70.9532C41.9961 70.3843 42.3951 69.8981 42.9071 69.556C43.4191 69.2138 44.0211 69.0312 44.6368 69.0312C45.4623 69.0319 46.2538 69.3602 46.8375 69.9439C47.4213 70.5276 47.7495 71.3191 47.7502 72.1446Z" fill="white"/>
<path d="M36.5003 50.216H94.699C94.6119 51.7156 94.4546 53.2018 94.2272 54.6744H64.6553C61.3877 54.6744 55.2995 54.6744 50.9314 59.9457C49.3015 61.9062 48.2571 63.2133 47.6023 64.0642C45.6841 63.3581 43.5773 63.3569 41.6584 64.061C39.7394 64.765 38.1332 66.1284 37.1268 67.9075C36.1203 69.6866 35.7792 71.7655 36.1642 73.773C36.5493 75.7804 37.6355 77.5856 39.2289 78.866C40.8222 80.1464 42.8188 80.8186 44.8621 80.7626C46.9054 80.7066 48.8622 79.926 50.383 78.5602C51.9038 77.1944 52.8895 75.3325 53.164 73.307C53.4385 71.2814 52.984 69.2243 51.8816 67.503C52.4671 66.7449 53.4775 65.4758 55.157 63.4512C57.6744 60.4162 61.0884 60.1653 64.6592 60.1653H93.0417C90.3863 69.6272 84.8562 78.0302 77.2164 84.2119C69.5765 90.3936 60.2046 94.0485 50.3968 94.671C40.589 95.2935 30.8301 92.8529 22.47 87.6868C14.1099 82.5206 7.56178 74.8842 3.73136 65.8339C1.20817 59.8567 -0.0610635 53.425 0.00225776 46.9374C0.065579 40.4497 1.46011 34.0441 4.09948 28.1172C6.73886 22.1903 10.5669 16.8684 15.3465 12.481C20.1261 8.09363 25.7556 4.73417 31.8862 2.61068C38.0169 0.487199 44.5182 -0.355093 50.9876 0.135967C57.4569 0.627026 63.7566 2.44098 69.4965 5.4655C75.2364 8.49002 80.2943 12.6607 84.3569 17.7193C88.4195 22.7778 91.4004 28.6166 93.1149 34.8739H66.6002C63.0294 34.8739 59.6154 34.623 57.098 31.588C56.3138 30.647 55.7753 29.9895 55.3988 29.5294C56.5242 27.8328 57.0101 25.7915 56.7697 23.7698C56.5294 21.7482 55.5785 19.8777 54.0867 18.4922C52.5949 17.1067 50.6593 16.2965 48.6254 16.206C46.5915 16.1155 44.5916 16.7507 42.9827 17.9982C41.3738 19.2457 40.2605 21.0243 39.8416 23.0167C39.4226 25.009 39.7253 27.0854 40.6955 28.8753C41.6658 30.6651 43.2405 32.0519 45.1386 32.7882C47.0367 33.5246 49.1347 33.5624 51.0581 32.8951C51.5025 33.4362 52.1103 34.1721 52.8736 35.0922C57.2457 40.3635 63.33 40.3635 66.5976 40.3635H94.2677C94.4821 41.8039 94.6293 43.2582 94.7095 44.7264H36.5003C35.8492 42.7925 34.5319 41.153 32.7837 40.1006C31.0354 39.0482 28.97 38.6515 26.9562 38.9814C24.9425 39.3113 23.1116 40.3462 21.7904 41.9014C20.4693 43.4565 19.744 45.4307 19.744 47.4712C19.744 49.5118 20.4693 51.4859 21.7904 53.0411C23.1116 54.5963 24.9425 55.6312 26.9562 55.961C28.97 56.2909 31.0354 55.8942 32.7837 54.8419C34.5319 53.7895 35.8492 52.15 36.5003 50.216Z" fill="white"/>
</svg>
