<svg width="20" height="19" viewBox="0 0 20 19" fill="none" xmlns="http://www.w3.org/2000/svg">
<path d="M9.67528 9.67208C9.10313 9.72657 8.61271 9.59034 8.1223 9.34513C5.72471 8.14634 3.32713 6.94755 0.902295 5.72151C0.711578 5.63977 0.520861 5.53079 0.384635 5.39457C-0.0240448 5.04038 -0.0240448 4.6317 0.384635 4.30475C0.548106 4.16853 0.766069 4.05955 0.984031 3.95057C3.32713 2.77902 5.69747 1.60747 8.04056 0.408679C9.13037 -0.136226 10.2202 -0.136226 11.31 0.408679C13.6531 1.58023 15.9962 2.75177 18.3665 3.92332C18.5028 4.00506 18.6662 4.05955 18.8024 4.16853C19.4563 4.57721 19.4291 5.09487 18.7752 5.53079C18.639 5.63977 18.5028 5.69426 18.3665 5.776C15.9962 6.94755 13.6258 8.14634 11.2555 9.34513C10.7651 9.59034 10.2474 9.75381 9.67528 9.67208Z" fill="black"/>
<path d="M9.51181 14.4107C8.96691 14.4652 8.44925 14.3017 7.93159 14.0565C5.47951 12.8304 3.05468 11.6044 0.602604 10.3784C0.22117 10.1876 -0.0785279 9.94244 0.0304533 9.45202C0.0849439 9.09783 0.357397 8.87987 0.711586 8.82538C1.01128 8.77089 1.28374 8.93436 1.52894 9.07059C3.76306 10.1876 6.02442 11.3047 8.23128 12.449C9.21211 12.9394 10.084 12.9667 11.0648 12.449C13.2717 11.3047 15.5058 10.2149 17.7126 9.09783C17.9034 8.98885 18.1213 8.87987 18.3393 8.82538C18.7207 8.74365 19.0204 8.90712 19.2111 9.26131C19.4019 9.58825 19.2929 9.91519 19.0204 10.1604C18.8569 10.2966 18.6662 10.4056 18.5028 10.4873C16.2414 11.6316 14.0073 12.7759 11.7459 13.893C11.0648 14.2472 10.3292 14.4379 9.51181 14.4107Z" fill="black"/>
<path d="M9.676 18.9914C9.02212 19.0459 8.42272 18.8552 7.82332 18.5555C5.48023 17.3839 3.16438 16.2396 0.821286 15.0681C0.630569 14.9591 0.412606 14.8501 0.249135 14.7139C-0.0233182 14.4687 -0.0778087 14.1418 0.112908 13.8148C0.330871 13.4879 0.603323 13.2971 1.012 13.4334C1.20272 13.4879 1.39344 13.5968 1.58415 13.6786C3.81827 14.7956 6.07963 15.9127 8.28649 17.057C9.21283 17.5474 10.0847 17.5474 11.011 17.057C13.2996 15.8855 15.5882 14.7411 17.8768 13.5968C18.2038 13.4334 18.5035 13.2699 18.8577 13.4879C19.3481 13.7603 19.4026 14.4415 18.9666 14.7956C18.8032 14.9319 18.6125 15.0136 18.4217 15.0953C16.1331 16.2396 13.8173 17.3839 11.5287 18.5282C10.9838 18.8279 10.3571 19.0459 9.676 18.9914Z" fill="black"/>
</svg>
