<svg width="17" height="17" viewBox="0 0 17 17" fill="none" xmlns="http://www.w3.org/2000/svg">
<g clip-path="url(#clip0_5_503)">
<path fill-rule="evenodd" clip-rule="evenodd" d="M8.39062 16.7812C12.8089 16.7812 16.3906 13.1996 16.3906 8.78125C16.3906 4.36297 12.8089 0.78125 8.39062 0.78125C3.97234 0.78125 0.390625 4.36297 0.390625 8.78125C0.390625 13.1996 3.97234 16.7812 8.39062 16.7812ZM12.0977 8.07414L9.09774 5.07414C8.70721 4.68362 8.07405 4.68362 7.68352 5.07414C7.293 5.46467 7.293 6.09783 7.68352 6.48836L8.97641 7.78125H5.39062C4.83834 7.78125 4.39062 8.22896 4.39062 8.78125C4.39062 9.33353 4.83834 9.78125 5.39062 9.78125H8.97641L7.68352 11.0742C7.293 11.4647 7.293 12.0978 7.68352 12.4883C8.07405 12.8788 8.70721 12.8788 9.09774 12.4883L12.0977 9.48836C12.4882 9.09783 12.4882 8.46467 12.0977 8.07414Z" fill="#2A496B"/>
</g>
<defs>
<clipPath id="clip0_5_503">
<rect width="16" height="16" fill="white" transform="translate(0.390625 0.78125)"/>
</clipPath>
</defs>
</svg>
