<svg width="17" height="17" viewBox="0 0 17 17" fill="none" xmlns="http://www.w3.org/2000/svg">
<g clip-path="url(#clip0_5_489)">
<path fill-rule="evenodd" clip-rule="evenodd" d="M8.39062 16.3438C12.8089 16.3438 16.3906 12.7621 16.3906 8.34375C16.3906 3.92547 12.8089 0.34375 8.39062 0.34375C3.97234 0.34375 0.390625 3.92547 0.390625 8.34375C0.390625 12.7621 3.97234 16.3438 8.39062 16.3438ZM12.0977 7.63664L9.09774 4.63664C8.70721 4.24612 8.07405 4.24612 7.68352 4.63664C7.293 5.02717 7.293 5.66033 7.68352 6.05086L8.97641 7.34375H5.39062C4.83834 7.34375 4.39062 7.79146 4.39062 8.34375C4.39062 8.89603 4.83834 9.34375 5.39062 9.34375H8.97641L7.68352 10.6367C7.293 11.0272 7.293 11.6603 7.68352 12.0508C8.07405 12.4413 8.70721 12.4413 9.09774 12.0508L12.0977 9.05086C12.4882 8.66033 12.4882 8.02717 12.0977 7.63664Z" fill="#2A3062"/>
</g>
<defs>
<clipPath id="clip0_5_489">
<rect width="16" height="16" fill="white" transform="translate(0.390625 0.34375)"/>
</clipPath>
</defs>
</svg>
