<svg width="50" height="50" viewBox="0 0 50 50" fill="none" xmlns="http://www.w3.org/2000/svg">
<path d="M17.1875 18.75C17.1875 18.3356 17.3521 17.9382 17.6451 17.6451C17.9382 17.3521 18.3356 17.1875 18.75 17.1875H31.25C31.6644 17.1875 32.0618 17.3521 32.3549 17.6451C32.6479 17.9382 32.8125 18.3356 32.8125 18.75C32.8125 19.1644 32.6479 19.5618 32.3549 19.8549C32.0618 20.1479 31.6644 20.3125 31.25 20.3125H18.75C18.3356 20.3125 17.9382 20.1479 17.6451 19.8549C17.3521 19.5618 17.1875 19.1644 17.1875 18.75ZM18.75 26.5625H31.25C31.6644 26.5625 32.0618 26.3979 32.3549 26.1049C32.6479 25.8118 32.8125 25.4144 32.8125 25C32.8125 24.5856 32.6479 24.1882 32.3549 23.8951C32.0618 23.6021 31.6644 23.4375 31.25 23.4375H18.75C18.3356 23.4375 17.9382 23.6021 17.6451 23.8951C17.3521 24.1882 17.1875 24.5856 17.1875 25C17.1875 25.4144 17.3521 25.8118 17.6451 26.1049C17.9382 26.3979 18.3356 26.5625 18.75 26.5625ZM25 29.6875H18.75C18.3356 29.6875 17.9382 29.8521 17.6451 30.1451C17.3521 30.4382 17.1875 30.8356 17.1875 31.25C17.1875 31.6644 17.3521 32.0618 17.6451 32.3549C17.9382 32.6479 18.3356 32.8125 18.75 32.8125H25C25.4144 32.8125 25.8118 32.6479 26.1049 32.3549C26.3979 32.0618 26.5625 31.6644 26.5625 31.25C26.5625 30.8356 26.3979 30.4382 26.1049 30.1451C25.8118 29.8521 25.4144 29.6875 25 29.6875ZM43.75 9.375V30.6035C43.7513 31.014 43.671 31.4207 43.5138 31.8C43.3565 32.1792 43.1254 32.5234 42.834 32.8125L32.8125 42.834C32.5234 43.1254 32.1792 43.3565 31.8 43.5138C31.4207 43.671 31.014 43.7513 30.6035 43.75H9.375C8.5462 43.75 7.75134 43.4208 7.16529 42.8347C6.57924 42.2487 6.25 41.4538 6.25 40.625V9.375C6.25 8.5462 6.57924 7.75134 7.16529 7.16529C7.75134 6.57924 8.5462 6.25 9.375 6.25H40.625C41.4538 6.25 42.2487 6.57924 42.8347 7.16529C43.4208 7.75134 43.75 8.5462 43.75 9.375ZM9.375 40.625H29.6875V31.25C29.6875 30.8356 29.8521 30.4382 30.1451 30.1451C30.4382 29.8521 30.8356 29.6875 31.25 29.6875H40.625V9.375H9.375V40.625ZM32.8125 32.8125V38.418L38.416 32.8125H32.8125Z" fill="black"/>
<path d="M17.1875 18.75C17.1875 18.3356 17.3521 17.9382 17.6451 17.6451C17.9382 17.3521 18.3356 17.1875 18.75 17.1875H31.25C31.6644 17.1875 32.0618 17.3521 32.3549 17.6451C32.6479 17.9382 32.8125 18.3356 32.8125 18.75C32.8125 19.1644 32.6479 19.5618 32.3549 19.8549C32.0618 20.1479 31.6644 20.3125 31.25 20.3125H18.75C18.3356 20.3125 17.9382 20.1479 17.6451 19.8549C17.3521 19.5618 17.1875 19.1644 17.1875 18.75ZM18.75 26.5625H31.25C31.6644 26.5625 32.0618 26.3979 32.3549 26.1049C32.6479 25.8118 32.8125 25.4144 32.8125 25C32.8125 24.5856 32.6479 24.1882 32.3549 23.8951C32.0618 23.6021 31.6644 23.4375 31.25 23.4375H18.75C18.3356 23.4375 17.9382 23.6021 17.6451 23.8951C17.3521 24.1882 17.1875 24.5856 17.1875 25C17.1875 25.4144 17.3521 25.8118 17.6451 26.1049C17.9382 26.3979 18.3356 26.5625 18.75 26.5625ZM25 29.6875H18.75C18.3356 29.6875 17.9382 29.8521 17.6451 30.1451C17.3521 30.4382 17.1875 30.8356 17.1875 31.25C17.1875 31.6644 17.3521 32.0618 17.6451 32.3549C17.9382 32.6479 18.3356 32.8125 18.75 32.8125H25C25.4144 32.8125 25.8118 32.6479 26.1049 32.3549C26.3979 32.0618 26.5625 31.6644 26.5625 31.25C26.5625 30.8356 26.3979 30.4382 26.1049 30.1451C25.8118 29.8521 25.4144 29.6875 25 29.6875ZM43.75 9.375V30.6035C43.7513 31.014 43.671 31.4207 43.5138 31.8C43.3565 32.1792 43.1254 32.5234 42.834 32.8125L32.8125 42.834C32.5234 43.1254 32.1792 43.3565 31.8 43.5138C31.4207 43.671 31.014 43.7513 30.6035 43.75H9.375C8.5462 43.75 7.75134 43.4208 7.16529 42.8347C6.57924 42.2487 6.25 41.4538 6.25 40.625V9.375C6.25 8.5462 6.57924 7.75134 7.16529 7.16529C7.75134 6.57924 8.5462 6.25 9.375 6.25H40.625C41.4538 6.25 42.2487 6.57924 42.8347 7.16529C43.4208 7.75134 43.75 8.5462 43.75 9.375ZM9.375 40.625H29.6875V31.25C29.6875 30.8356 29.8521 30.4382 30.1451 30.1451C30.4382 29.8521 30.8356 29.6875 31.25 29.6875H40.625V9.375H9.375V40.625ZM32.8125 32.8125V38.418L38.416 32.8125H32.8125Z" fill="url(#paint0_linear_38_2466)"/>
<defs>
<linearGradient id="paint0_linear_38_2466" x1="6.25" y1="12.2573" x2="47.1082" y2="17.4803" gradientUnits="userSpaceOnUse">
<stop stop-color="#FF8E37"/>
<stop offset="1" stop-color="#F05306"/>
</linearGradient>
</defs>
</svg>
