<svg width="1260" height="52" viewBox="0 0 1260 52" fill="none" xmlns="http://www.w3.org/2000/svg">
<mask id="mask0_38_1897" style="mask-type:alpha" maskUnits="userSpaceOnUse" x="0" y="0" width="1260" height="52">
<rect y="0.796875" width="1259.95" height="50.3979" fill="url(#paint0_linear_38_1897)"/>
</mask>
<g mask="url(#mask0_38_1897)">
</g>
<g clip-path="url(#clip0_38_1897)">
<g clip-path="url(#clip1_38_1897)">
<g clip-path="url(#clip2_38_1897)">
<mask id="mask1_38_1897" style="mask-type:luminance" maskUnits="userSpaceOnUse" x="0" y="0" width="66" height="52">
<path d="M65.2457 0.796875H0.148438V51.1947H65.2457V0.796875Z" fill="white"/>
</mask>
<g mask="url(#mask1_38_1897)">
<path fill-rule="evenodd" clip-rule="evenodd" d="M32.3704 35.0142L28.7412 34.1618V19.7757L32.3704 19.0956V35.0142ZM57.7569 31.6221C55.1247 31.6307 52.991 29.5386 52.9734 26.9472V26.9214C52.9734 24.3731 55.0986 22.281 57.7482 22.281C60.398 22.281 62.523 24.3731 62.523 26.9214C62.5317 29.5128 60.398 31.6135 57.7745 31.6221H57.7569ZM65.986 26.9214C65.986 31.3982 62.3044 35.0228 57.7569 35.0228C53.2096 35.0228 49.528 31.3982 49.528 26.9214C49.528 22.5049 53.2183 18.8803 57.7658 18.8803C62.3131 18.8803 65.986 22.5049 65.986 26.9214ZM19.2966 34.1704L22.8646 34.9022V25.2168C22.8646 20.5677 19.1829 18.932 16.647 18.932C14.9766 18.932 13.595 19.328 12.3881 20.5161C11.1201 19.328 9.62472 18.8717 8.41791 18.8717C6.63394 18.8717 5.13856 19.6035 4.09791 20.8518V19.2075L0.46875 19.8877V34.1618L4.09791 34.8936V25.1049C4.09791 23.5207 5.25224 22.4446 7.02747 22.4446C8.69776 22.4446 9.90456 23.5207 9.90456 25.1049V34.1704L13.4725 34.9022V25.1049C13.4725 23.5207 14.6794 22.4446 16.4108 22.4446C18.0811 22.4446 19.2879 23.5207 19.2879 25.1049L19.2966 34.1704ZM46.817 18.8803L44.6833 19.1644C40.713 20.0685 38.1246 21.3168 38.1246 25.6215V34.1704L41.7537 34.8506V26.1293C41.7537 24.1492 42.908 23.2366 44.692 22.9009L46.8257 22.5651L46.817 18.8803ZM28.9161 12.9829C28.0503 13.8525 28.0503 15.2299 28.9161 16.0995C29.7993 16.9949 31.2597 17.0035 32.1605 16.134L32.1955 16.0995C33.0612 15.2386 33.0612 13.8439 32.1955 12.9829C31.2686 12.1307 29.8343 12.1307 28.9161 12.9829Z" fill="white"/>
</g>
<mask id="mask2_38_1897" style="mask-type:luminance" maskUnits="userSpaceOnUse" x="124" y="0" width="71" height="52">
<path d="M194.39 0.796875H124.043V51.1947H194.39V0.796875Z" fill="white"/>
</mask>
<g mask="url(#mask2_38_1897)">
<mask id="mask3_38_1897" style="mask-type:luminance" maskUnits="userSpaceOnUse" x="122" y="9" width="74" height="34">
<path d="M195.271 9.19531H122.25V42.7939H195.271V9.19531Z" fill="white"/>
</mask>
<g mask="url(#mask3_38_1897)">
<path d="M141.059 42.7939C151.414 42.7939 158.511 35.9854 158.511 25.984C158.511 16.0039 151.414 9.19531 141.059 9.19531C130.706 9.19531 123.629 16.0039 123.629 25.984C123.629 35.9854 130.706 42.7939 141.059 42.7939ZM126.886 25.984C126.886 17.5474 132.294 12.3247 141.059 12.3247C149.805 12.3247 155.194 17.5474 155.194 25.984C155.194 34.4418 149.805 39.6644 141.059 39.6644C132.294 39.6644 126.886 34.4418 126.886 25.984ZM133.681 35.4145H143.351C147.232 35.4145 149.746 33.1943 149.765 30.0649C149.785 27.6122 148.579 26.0475 145.764 25.6246C148.076 25.1594 149.263 23.637 149.263 21.3745C149.263 18.7103 147.252 16.5747 142.769 16.5747H133.681V35.4145ZM137.239 32.4119V27.2527H142.608C144.698 27.2527 145.905 28.0985 145.905 29.8535C145.905 31.5028 144.718 32.4119 142.709 32.4119H137.239ZM137.239 24.2502V19.5561H142.346C143.513 19.5561 145.403 19.6618 145.403 21.7974C145.403 23.3833 144.337 24.2502 142.327 24.2502H137.239ZM160.119 25.984C160.119 35.9854 167.196 42.7939 177.55 42.7939C187.904 42.7939 195.001 35.9854 195.001 25.984C195.001 16.0039 187.904 9.19531 177.55 9.19531C167.196 9.19531 160.119 16.0039 160.119 25.984ZM163.376 25.984C163.376 17.5474 168.784 12.3247 177.55 12.3247C186.296 12.3247 191.684 17.5474 191.684 25.984C191.684 34.4418 186.296 39.6644 177.55 39.6644C168.784 39.6644 163.376 34.4418 163.376 25.984ZM170.171 35.4145H179.841C183.722 35.4145 186.235 33.1943 186.256 30.0649C186.276 27.6122 185.069 26.0475 182.254 25.6246C184.566 25.1594 185.753 23.637 185.753 21.3745C185.753 18.7103 183.742 16.5747 179.259 16.5747H170.171V35.4145ZM173.73 32.4119V27.2527H179.098C181.189 27.2527 182.395 28.0985 182.395 29.8535C182.395 31.5028 181.208 32.4119 179.199 32.4119H173.73ZM173.73 24.2502V19.5561H178.837C180.003 19.5561 181.893 19.6618 181.893 21.7974C181.893 23.3833 180.827 24.2502 178.817 24.2502H173.73Z" fill="white"/>
</g>
</g>
<mask id="mask4_38_1897" style="mask-type:luminance" maskUnits="userSpaceOnUse" x="253" y="0" width="166" height="52">
<path d="M418.031 0.796875H253.188V51.1947H418.031V0.796875Z" fill="white"/>
</mask>
<g mask="url(#mask4_38_1897)">
<mask id="mask5_38_1897" style="mask-type:luminance" maskUnits="userSpaceOnUse" x="254" y="11" width="165" height="28">
<path d="M418.406 11.2969H254.613V38.5957H418.406V11.2969Z" fill="white"/>
</mask>
<g mask="url(#mask5_38_1897)">
<path d="M277.343 22.801L266.633 28.8305L255.165 22.3884L254.613 22.6864V27.3633L266.633 34.1034L277.343 28.0969V30.5729L266.633 36.6024L255.165 30.1602L254.613 30.4583V31.2606L266.633 38.0008L278.63 31.2606V26.5838L278.078 26.2857L266.633 32.705L255.901 26.6985V24.2225L266.633 30.2289L278.63 23.4888V18.8807L278.033 18.5368L266.633 24.9331L256.452 19.2476L266.633 13.5391L274.998 18.2389L275.734 17.8261V17.253L266.633 12.1406L254.613 18.8807V19.6143L266.633 26.3545L277.343 20.325V22.801Z" fill="white"/>
<path d="M301.084 34.181V13.5938H297.912V21.2969C297.912 21.4114 297.843 21.5032 297.729 21.5491C297.613 21.5948 297.499 21.5491 297.429 21.4802C296.35 20.2193 294.672 19.5086 292.834 19.5086C288.904 19.5086 285.824 22.8099 285.824 27.0282C285.824 29.0915 286.536 30.9944 287.846 32.3928C289.156 33.7914 290.926 34.5478 292.834 34.5478C294.649 34.5478 296.327 33.7914 297.429 32.4846C297.499 32.3928 297.636 32.37 297.729 32.3928C297.843 32.4388 297.912 32.5304 297.912 32.6451V34.181H301.084ZM293.522 31.6822C290.995 31.6822 289.018 29.6417 289.018 27.0282C289.018 24.4147 290.995 22.3743 293.522 22.3743C296.051 22.3743 298.028 24.4147 298.028 27.0282C298.028 29.6417 296.051 31.6822 293.522 31.6822Z" fill="white"/>
<path d="M318.043 34.1797V19.8511H314.894V21.2954C314.894 21.4101 314.825 21.5018 314.71 21.5476C314.595 21.5935 314.48 21.5476 314.411 21.456C313.354 20.195 311.699 19.4844 309.815 19.4844C305.884 19.4844 302.805 22.7856 302.805 27.0039C302.805 31.2223 305.884 34.5235 309.815 34.5235C311.631 34.5235 313.308 33.767 314.411 32.4374C314.48 32.3457 314.618 32.3227 314.71 32.3457C314.825 32.3915 314.894 32.4831 314.894 32.5978V34.1568H318.043V34.1797ZM310.527 31.6809C307.999 31.6809 306.023 29.6404 306.023 27.0269C306.023 24.4134 307.999 22.3729 310.527 22.3729C313.055 22.3729 315.031 24.4134 315.031 27.0269C315.031 29.6404 313.055 31.6809 310.527 31.6809Z" fill="white"/>
<path d="M345.003 34.1797V19.8511H341.855V21.2954C341.855 21.4101 341.785 21.5018 341.67 21.5476C341.556 21.5935 341.441 21.5476 341.372 21.456C340.315 20.195 338.66 19.4844 336.775 19.4844C332.822 19.4844 329.766 22.7856 329.766 27.0269C329.766 31.2681 332.845 34.5465 336.775 34.5465C338.59 34.5465 340.268 33.7899 341.372 32.4603C341.441 32.3685 341.579 32.3457 341.67 32.3685C341.785 32.4145 341.855 32.5061 341.855 32.6208V34.1797H345.003ZM337.488 31.6809C334.96 31.6809 332.984 29.6404 332.984 27.0269C332.984 24.4134 334.96 22.3729 337.488 22.3729C340.016 22.3729 341.992 24.4134 341.992 27.0269C341.992 29.6404 340.016 31.6809 337.488 31.6809Z" fill="white"/>
<path d="M350.766 32.4846C350.788 32.4846 350.834 32.4617 350.857 32.4617C350.926 32.4617 351.018 32.5074 351.064 32.5534C352.144 33.8142 353.822 34.5249 355.661 34.5249C359.591 34.5249 362.67 31.2237 362.67 27.0053C362.67 24.942 361.957 23.0392 360.648 21.6407C359.338 20.2423 357.568 19.4857 355.661 19.4857C353.845 19.4857 352.168 20.2423 351.064 21.5491C350.995 21.6407 350.88 21.6636 350.766 21.6407C350.65 21.5948 350.581 21.5032 350.581 21.3885V13.5938H347.41V34.181H350.581V32.7368C350.581 32.6221 350.65 32.5304 350.766 32.4846ZM350.443 27.0282C350.443 24.4147 352.421 22.3743 354.948 22.3743C357.476 22.3743 359.452 24.4147 359.452 27.0282C359.452 29.6417 357.476 31.6822 354.948 31.6822C352.421 31.6822 350.443 29.6189 350.443 27.0282Z" fill="white"/>
<path d="M371.846 22.7872C372.145 22.7872 372.421 22.8101 372.605 22.856V19.6005C372.489 19.5776 372.283 19.5547 372.076 19.5547C370.422 19.5547 368.904 20.4029 368.1 21.7555C368.031 21.8702 367.916 21.916 367.801 21.8702C367.687 21.8473 367.594 21.7326 367.594 21.618V19.8527H364.445V34.2042H367.617V27.8767C367.617 24.7359 369.226 22.7872 371.846 22.7872Z" fill="white"/>
<path d="M377.824 19.8516H374.605V34.203H377.824V19.8516Z" fill="white"/>
<path d="M376.165 13.6094C375.084 13.6094 374.211 14.4805 374.211 15.558C374.211 16.6356 375.084 17.5067 376.165 17.5067C377.245 17.5067 378.118 16.6356 378.118 15.558C378.118 14.4805 377.245 13.6094 376.165 13.6094Z" fill="white"/>
<path d="M387.245 19.4844C382.832 19.4844 379.637 22.6481 379.637 27.0269C379.637 29.159 380.396 31.0618 381.751 32.4374C383.131 33.8129 385.061 34.5694 387.221 34.5694C389.014 34.5694 390.392 34.2256 393.013 32.2998L391.198 30.397C389.909 31.2451 388.715 31.6579 387.544 31.6579C384.877 31.6579 382.878 29.6634 382.878 27.0269C382.878 24.3904 384.877 22.3959 387.544 22.3959C388.807 22.3959 389.98 22.8085 391.152 23.6568L393.174 21.754C390.807 19.7365 388.669 19.4844 387.245 19.4844Z" fill="white"/>
<path d="M398.599 27.8691C398.644 27.8233 398.714 27.8004 398.784 27.8004H398.806C398.875 27.8004 398.943 27.8461 399.013 27.8921L404.092 34.1737H407.999L401.426 26.2414C401.333 26.1267 401.333 25.9663 401.449 25.8745L407.493 19.8452H403.609L398.392 25.0723C398.323 25.141 398.209 25.1639 398.094 25.141C398.002 25.0951 397.932 25.0034 397.932 24.8888V13.6094H394.738V34.1966H397.91V28.6027C397.91 28.534 397.932 28.4423 398.002 28.3964L398.599 27.8691Z" fill="white"/>
<path d="M413.164 34.5382C415.762 34.5382 418.405 32.9563 418.405 29.9531C418.405 27.9815 417.163 26.6288 414.636 25.8036L412.911 25.2304C411.739 24.8407 411.187 24.2905 411.187 23.5339C411.187 22.6627 411.969 22.0667 413.073 22.0667C414.13 22.0667 415.072 22.7544 415.669 23.9466L418.221 22.571C417.279 20.6452 415.325 19.4531 413.073 19.4531C410.222 19.4531 408.155 21.2872 408.155 23.786C408.155 25.7806 409.35 27.1102 411.808 27.8898L413.579 28.4629C414.82 28.8526 415.348 29.3569 415.348 30.1594C415.348 31.3745 414.221 31.8101 413.257 31.8101C411.969 31.8101 410.821 30.9847 410.269 29.632L407.672 31.0077C408.522 33.1856 410.613 34.5382 413.164 34.5382Z" fill="white"/>
<path d="M326.87 34.4044C327.881 34.4044 328.778 34.3128 329.284 34.2439V31.4928C328.871 31.5387 328.135 31.5845 327.698 31.5845C326.412 31.5845 325.422 31.3553 325.422 28.5813V22.6894C325.422 22.5289 325.538 22.4143 325.699 22.4143H328.801V19.8236H325.699C325.538 19.8236 325.422 19.7091 325.422 19.5485V15.4219H322.252V19.5715C322.252 19.7319 322.136 19.8466 321.976 19.8466H319.77V22.4372H321.976C322.136 22.4372 322.252 22.5518 322.252 22.7122V29.3837C322.252 34.4044 325.606 34.4044 326.87 34.4044Z" fill="white"/>
</g>
</g>
<mask id="mask6_38_1897" style="mask-type:luminance" maskUnits="userSpaceOnUse" x="476" y="0" width="123" height="52">
<path d="M598.623 0.796875H476.828V51.1947H598.623V0.796875Z" fill="white"/>
</mask>
<g mask="url(#mask6_38_1897)">
<mask id="mask7_38_1897" style="mask-type:luminance" maskUnits="userSpaceOnUse" x="476" y="10" width="123" height="30">
<path d="M598.874 10.25H476.379V39.6488H598.874V10.25Z" fill="white"/>
</mask>
<g mask="url(#mask7_38_1897)">
<path fill-rule="evenodd" clip-rule="evenodd" d="M480.34 15.063C480.178 15.2336 480.189 15.4956 480.359 15.6587L501.365 35.8247C501.534 35.9879 501.807 35.9982 501.986 35.8428C505.065 33.1522 506.999 29.2729 506.999 24.96C506.999 16.836 500.139 10.25 491.676 10.25C487.184 10.25 483.142 12.106 480.34 15.063ZM477.714 18.8901C477.636 19.0544 477.676 19.2471 477.808 19.3746L497.494 38.2726C497.627 38.4002 497.828 38.4377 497.999 38.3633C498.454 38.1653 498.897 37.9465 499.326 37.7083C499.581 37.5668 499.62 37.2323 499.412 37.0321L479.101 17.5333C478.892 17.3331 478.543 17.3707 478.396 17.6159C478.149 18.0284 477.921 18.4535 477.714 18.8901ZM476.52 24.3015C476.428 24.2129 476.378 24.091 476.388 23.9661C476.428 23.3814 476.504 22.806 476.614 22.2419C476.68 21.9037 477.11 21.7863 477.364 22.0296L494.728 38.6996C494.982 38.9429 494.86 39.3562 494.507 39.4193C493.92 39.5248 493.32 39.5979 492.712 39.637C492.581 39.6453 492.454 39.5983 492.362 39.5097L476.52 24.3015ZM477.586 28.4064C477.269 28.1026 476.758 28.3644 476.875 28.7792C478.286 33.8338 482.432 37.8142 487.698 39.1694C488.13 39.2806 488.403 38.7904 488.086 38.4868L477.586 28.4064ZM538.119 18.3449C539.217 18.3449 540.108 17.4871 540.108 16.4289C540.108 15.3706 539.217 14.5128 538.119 14.5128C537.021 14.5128 536.13 15.3706 536.13 16.4289C536.13 17.4871 537.021 18.3449 538.119 18.3449ZM521.086 35.0551V14.514H524.62V32.0497H534.148V35.0551H521.086ZM546.239 26.6732V35.0551H542.82V20.497H546.196V22.9924L546.239 22.9648C546.583 22.1836 547.136 21.531 547.898 21.0071C548.662 20.474 549.635 20.2076 550.817 20.2076C551.867 20.2076 552.82 20.4328 553.679 20.8831C554.537 21.3242 555.224 21.9721 555.739 22.8269C556.254 23.6817 556.512 24.7294 556.512 25.9701V35.0551H553.092V26.4251C553.092 25.3222 552.787 24.4858 552.177 23.916C551.576 23.337 550.77 23.0475 549.759 23.0475C549.11 23.0475 548.519 23.1762 547.984 23.4335C547.45 23.6908 547.026 24.086 546.711 24.6191C546.397 25.1521 546.239 25.8368 546.239 26.6732ZM577.201 34.8069C577.984 35.1286 578.88 35.2894 579.89 35.2894C580.721 35.2894 581.431 35.1883 582.023 34.9861C582.614 34.7748 583.1 34.4944 583.482 34.1452C583.873 33.796 584.183 33.4145 584.411 33.001H584.469V35.0551H587.746V25.0326C587.746 24.325 587.602 23.677 587.317 23.0889C587.03 22.5007 586.615 21.9906 586.072 21.5587C585.537 21.1266 584.889 20.7958 584.126 20.566C583.363 20.3271 582.504 20.2076 581.55 20.2076C580.244 20.2076 579.113 20.4235 578.16 20.8555C577.215 21.2783 576.476 21.8481 575.942 22.565C575.408 23.2818 575.117 24.0906 575.069 24.9913H578.374C578.412 24.5686 578.565 24.1917 578.832 23.8609C579.099 23.5301 579.462 23.2726 579.92 23.0889C580.378 22.8959 580.907 22.7993 581.507 22.7993C582.109 22.7993 582.618 22.8959 583.038 23.0889C583.468 23.2818 583.797 23.5438 584.025 23.8746C584.255 24.2055 584.37 24.5916 584.37 25.0326V25.143C584.37 25.4738 584.25 25.7173 584.011 25.8737C583.783 26.0299 583.391 26.1448 582.839 26.2183C582.295 26.2917 581.55 26.3791 580.606 26.4802C579.834 26.563 579.089 26.687 578.374 26.8524C577.659 27.0179 577.02 27.2614 576.457 27.5831C575.904 27.9048 575.465 28.3321 575.14 28.8652C574.816 29.3983 574.654 30.0829 574.654 30.9192C574.654 31.8843 574.883 32.6931 575.341 33.3456C575.799 33.989 576.419 34.476 577.201 34.8069ZM582.738 32.3668C582.185 32.6518 581.503 32.7941 580.693 32.7941C579.871 32.7941 579.218 32.6288 578.732 32.2979C578.245 31.9578 578.003 31.4937 578.003 30.9055C578.003 30.446 578.136 30.0737 578.403 29.7888C578.68 29.5039 579.042 29.2788 579.49 29.1133C579.939 28.9478 580.425 28.8331 580.95 28.7687C581.331 28.7136 581.703 28.6583 582.066 28.6032C582.428 28.5389 582.766 28.4791 583.081 28.424C583.396 28.3597 583.663 28.2954 583.882 28.231C584.111 28.1667 584.278 28.0978 584.383 28.0242V29.651C584.383 30.2208 584.246 30.7447 583.968 31.2226C583.702 31.6914 583.291 32.0727 582.738 32.3668ZM590.729 35.0551V20.497H594.02V22.8959H594.063C594.339 22.0687 594.774 21.4392 595.365 21.0071C595.965 20.566 596.753 20.3454 597.725 20.3454C597.964 20.3454 598.179 20.3547 598.369 20.373C598.57 20.3822 598.736 20.3914 598.87 20.4006V23.3646C598.747 23.3462 598.526 23.3232 598.212 23.2956C597.897 23.2681 597.563 23.2542 597.21 23.2542C596.648 23.2542 596.132 23.3783 595.665 23.6265C595.198 23.8746 594.826 24.2561 594.549 24.7707C594.282 25.2762 594.149 25.915 594.149 26.687V35.0551H590.729ZM536.402 35.0551V20.497H539.822V35.0551H536.402ZM562.199 34.4072C563.296 35.0597 564.598 35.3859 566.106 35.3859C567.269 35.3859 568.327 35.1837 569.282 34.7794C570.244 34.3658 571.046 33.8005 571.685 33.0837C572.324 32.3577 572.739 31.5213 572.93 30.5746H569.711C569.567 31.0066 569.334 31.388 569.01 31.7189C568.695 32.0406 568.299 32.2933 567.822 32.4771C567.346 32.6609 566.792 32.7529 566.162 32.7529C565.314 32.7529 564.584 32.569 563.973 32.2014C563.373 31.8337 562.915 31.3237 562.6 30.6711C562.314 30.0705 562.158 29.3904 562.131 28.6308H573.13V27.7485C573.13 26.6272 572.959 25.6071 572.615 24.688C572.272 23.7598 571.785 22.9601 571.156 22.2892C570.526 21.6092 569.768 21.0853 568.881 20.7176C568.003 20.35 567.025 20.1662 565.948 20.1662C564.545 20.1662 563.306 20.4925 562.228 21.1451C561.15 21.7975 560.306 22.6983 559.696 23.847C559.084 24.9959 558.78 26.3101 558.78 27.7898C558.78 29.2604 559.075 30.57 559.667 31.7189C560.258 32.8585 561.103 33.7546 562.199 34.4072ZM569.396 24.7707C569.081 24.1457 568.633 23.6633 568.051 23.3232C567.469 22.9831 566.783 22.8131 565.991 22.8131C565.209 22.8131 564.526 22.9831 563.945 23.3232C563.372 23.6633 562.924 24.1457 562.6 24.7707C562.369 25.2233 562.222 25.738 562.161 26.3147H569.835C569.774 25.738 569.627 25.2233 569.396 24.7707Z" fill="white"/>
</g>
</g>
<mask id="mask8_38_1897" style="mask-type:luminance" maskUnits="userSpaceOnUse" x="659" y="23" width="22" height="13">
<path d="M669.945 35.3797C675.844 35.3797 680.628 30.869 680.628 25.7251C680.628 22.1973 675.844 24.799 669.945 24.799C664.046 24.799 659.262 22.1973 659.262 25.7251C659.262 30.0335 664.046 35.3797 669.945 35.3797Z" fill="white"/>
</mask>
<g mask="url(#mask8_38_1897)">
<path fill-rule="evenodd" clip-rule="evenodd" d="M669.639 35.3753C669.832 33.1772 672.085 31.3001 674.991 31.0451C676.223 30.9376 677.392 31.1387 678.373 31.569C679.781 29.9218 680.619 27.8789 680.619 25.7251C680.619 23.4027 678.546 23.7368 675.446 24.2361C673.838 24.4953 671.952 24.7991 669.936 24.7991C667.921 24.7991 666.036 24.4953 664.427 24.2361C661.328 23.7368 659.254 23.4027 659.254 25.7251C659.254 29.9609 663.878 35.2 669.639 35.3753Z" fill="white"/>
</g>
<path d="M669.955 35.3767V36.1765C673.111 36.1765 675.97 34.9721 678.048 33.0678C679.089 32.1156 679.934 30.9873 680.522 29.7425C681.11 28.4974 681.438 27.1335 681.438 25.722C681.438 25.2935 681.381 24.9007 681.24 24.5413C681.136 24.2724 680.981 24.0247 680.785 23.8225C680.49 23.5154 680.116 23.325 679.738 23.2155C679.355 23.1083 678.957 23.0726 678.538 23.0703C677.989 23.0703 677.398 23.1346 676.758 23.2226C675.803 23.3559 674.737 23.5511 673.592 23.7106C672.448 23.8701 671.221 23.9963 669.955 23.9963C668.268 23.9963 666.651 23.7724 665.199 23.5439C664.473 23.4297 663.79 23.3131 663.152 23.225C662.512 23.1369 661.922 23.0726 661.372 23.0726C661 23.0726 660.645 23.1012 660.301 23.1845C660.043 23.2464 659.793 23.3392 659.557 23.4797C659.384 23.5844 659.217 23.7177 659.076 23.8748C658.862 24.1105 658.706 24.4008 658.61 24.7128C658.513 25.0269 658.473 25.3602 658.473 25.7244C658.473 26.9502 658.808 28.2047 659.393 29.4021C660.271 31.1968 661.712 32.8726 663.53 34.1223C665.349 35.3672 667.558 36.1812 669.955 36.1812V34.5793C668.601 34.5793 667.308 34.2722 666.123 33.7462C664.344 32.9559 662.814 31.6634 661.743 30.1994C661.207 29.4686 660.786 28.6999 660.502 27.9357C660.22 27.174 660.074 26.4194 660.074 25.7244C660.074 25.4411 660.115 25.2459 660.162 25.1246C660.198 25.034 660.233 24.9793 660.276 24.9364C660.34 24.8721 660.431 24.8103 660.612 24.758C660.791 24.7055 661.05 24.6746 661.372 24.6746C661.795 24.6746 662.326 24.727 662.931 24.8103C663.838 24.9364 664.911 25.1316 666.096 25.2983C667.284 25.4625 668.584 25.5982 669.955 25.5982C671.783 25.5982 673.485 25.3577 674.961 25.1269C675.696 25.0102 676.378 24.896 676.979 24.8103C677.584 24.7246 678.115 24.6722 678.538 24.6746C678.824 24.6746 679.062 24.6985 679.235 24.7412C679.367 24.7722 679.46 24.8127 679.526 24.8531C679.577 24.8841 679.612 24.9127 679.643 24.9484C679.69 25.0008 679.731 25.0673 679.772 25.1888C679.808 25.3102 679.836 25.4864 679.836 25.7244C679.836 26.886 679.567 28.0142 679.074 29.0617C678.334 30.6326 677.084 32.0156 675.504 33.0011C673.923 33.9889 672.014 34.5793 669.955 34.5793V35.3791V35.3767Z" fill="white"/>
<path d="M662.986 12.8989L662.965 12.4513L662.984 12.8989H662.986L662.965 12.4513L662.984 12.8989H663.007C663.021 12.8989 663.046 12.8989 663.076 12.8989C663.29 12.8989 663.845 12.9179 664.543 13.0727C665.069 13.1892 665.67 13.3845 666.275 13.6986C667.184 14.1747 668.092 14.9103 668.794 16.11C669.496 17.3097 669.998 18.9998 669.998 21.411C669.998 21.8538 670.357 22.2108 670.801 22.2108C671.244 22.2108 671.601 21.8513 671.601 21.411C671.601 19.0712 671.163 17.2383 670.455 15.8148C669.925 14.7484 669.243 13.92 668.513 13.2916C667.415 12.3466 666.215 11.8515 665.219 11.5897C664.218 11.3278 663.416 11.2969 663.076 11.2969C662.976 11.2969 662.914 11.2993 662.903 11.3016C662.462 11.3254 662.122 11.7015 662.146 12.1443C662.169 12.5871 662.546 12.925 662.986 12.9012V12.8989Z" fill="white"/>
<path d="M660.376 17.9815C660.407 18.0172 660.79 18.4577 661.459 18.9099C661.792 19.1361 662.199 19.3646 662.673 19.5407C663.146 19.7169 663.692 19.8383 664.284 19.8383C664.878 19.8383 665.517 19.7145 666.161 19.4193C666.805 19.1265 667.45 18.6671 668.083 18.0149C668.391 17.6983 668.383 17.1914 668.067 16.8818C667.748 16.5748 667.241 16.582 666.933 16.8985C666.417 17.4294 665.934 17.7602 665.496 17.9625C665.056 18.1625 664.658 18.2363 664.284 18.2363C663.911 18.2363 663.556 18.1601 663.23 18.0387C662.74 17.8578 662.314 17.5746 662.021 17.3341C661.874 17.2151 661.759 17.108 661.683 17.0342C661.647 16.9961 661.618 16.9675 661.602 16.9509L661.585 16.9318C661.295 16.5985 660.79 16.5628 660.457 16.8509C660.121 17.1413 660.086 17.646 660.376 17.9815Z" fill="white"/>
<path d="M672.425 17.9815C672.458 18.0172 672.842 18.4577 673.508 18.9099C673.844 19.1361 674.251 19.3646 674.724 19.5407C675.199 19.7169 675.741 19.8383 676.336 19.8383C676.926 19.8383 677.566 19.7145 678.212 19.4193C678.857 19.1265 679.503 18.6671 680.136 18.0149C680.442 17.6983 680.435 17.1914 680.119 16.8818C679.8 16.5748 679.293 16.582 678.986 16.8985C678.469 17.4294 677.985 17.7602 677.548 17.9625C677.108 18.1625 676.71 18.2363 676.336 18.2363C675.96 18.2363 675.607 18.1601 675.282 18.0387C674.791 17.8578 674.365 17.5746 674.07 17.3341C673.922 17.2151 673.809 17.108 673.734 17.0342C673.696 16.9961 673.67 16.9675 673.653 16.9509L673.636 16.9318C673.347 16.5985 672.842 16.5628 672.506 16.8509C672.173 17.1413 672.137 17.646 672.425 17.9815Z" fill="white"/>
<path d="M709.139 35.1397H705.543V19.0938H709.139V35.1397Z" fill="white"/>
<path d="M719.58 26.7911H715.215V22.0995L719.409 22.1162C719.409 22.1162 722.36 21.9662 722.36 24.337C722.36 26.9459 719.466 26.7911 719.466 26.7911M720.573 28.3099C720.573 28.3099 725.914 28.724 725.914 24.1181C725.914 19.2383 721.001 19.1789 721.001 19.1789L711.594 19.0859V35.2058H715.26V29.8238L719.349 29.819C719.349 29.819 721.92 29.6214 721.92 32.8468V35.2891H725.636V32.7159C725.636 32.7159 726.069 28.3384 720.573 28.4979V28.3099Z" fill="white"/>
<path d="M745.582 19.0859H749.257V29.0358C749.257 29.0358 749.277 32.4589 753.055 32.4589C756.415 32.4589 756.487 28.9192 756.487 28.9192V19.0859H760.154V28.3693C760.154 28.3693 760.521 35.6056 753.195 35.6056C745.868 35.6056 745.601 30.5831 745.601 28.3717C745.601 26.1603 745.582 19.0859 745.582 19.0859Z" fill="white"/>
<path d="M772.631 23.7837H776.529C776.529 23.7837 777.046 18.5707 768.883 18.6493C761.093 18.7254 761.895 24.3003 761.895 24.3003C761.895 24.3003 761.64 27.5685 766.636 28.1207L770.247 28.5278C770.247 28.5278 773.009 28.9252 773.009 30.4653C773.009 32.0055 771.283 32.4601 769.541 32.4601C767.098 32.4601 765.568 31.5627 765.568 29.9893H761.407C761.407 29.9893 760.572 35.6093 769.71 35.6093C777.495 35.6093 776.762 29.8799 776.762 29.8799C776.762 29.8799 777.083 26.2331 770.571 25.5785L767.441 25.2143C767.441 25.2143 765.637 24.8977 765.637 23.7099C765.637 22.7387 766.456 21.6318 768.938 21.6318C771.9 21.6318 772.654 23.1172 772.631 23.7837Z" fill="white"/>
<path d="M700.025 25.4456H703.826C703.826 25.4456 704.292 18.7188 695.246 18.7188C689.049 18.7188 687.031 23.4746 687.031 27.4356C687.031 31.0038 688.733 35.5122 695.451 35.5122C704.217 35.5122 703.869 28.5282 703.869 28.5282H700.007C700.007 28.5282 699.975 32.3511 695.451 32.3511C691.225 32.3511 690.587 28.5068 690.587 27.2785C690.587 26.0502 691.042 21.7822 695.448 21.7822C699.854 21.7822 700.025 25.4432 700.025 25.4432" fill="white"/>
<path d="M739.998 25.4456H743.8C743.8 25.4456 744.264 18.7188 735.221 18.7188C729.023 18.7188 727.004 23.4746 727.004 27.4356C727.004 31.0038 728.706 35.5122 735.423 35.5122C744.191 35.5122 743.843 28.5282 743.843 28.5282H739.979C739.979 28.5282 739.948 32.3511 735.423 32.3511C731.197 32.3511 730.562 28.5068 730.562 27.2785C730.562 26.0502 731.015 21.7822 735.42 21.7822C739.827 21.7822 739.998 25.4432 739.998 25.4432" fill="white"/>
<mask id="mask9_38_1897" style="mask-type:luminance" maskUnits="userSpaceOnUse" x="835" y="0" width="170" height="52">
<path d="M1004.96 0.796875H835.918V51.1947H1004.96V0.796875Z" fill="white"/>
</mask>
<g mask="url(#mask9_38_1897)">
<path d="M856.252 36.7121C856.534 35.0892 855.943 33.4114 854.675 32.3112C853.774 31.4859 852.563 31.0184 851.323 31.0184C850.591 31.0184 849.887 30.8534 849.239 30.5234C848.395 30.0832 847.718 29.3956 847.268 28.5704C847.521 27.9377 847.633 27.2501 847.633 26.5075C847.633 28.5154 849.267 30.1382 851.296 30.1382H851.38C853.38 30.1107 854.985 28.4879 854.985 26.5075C854.985 25.7924 855.126 25.1047 855.351 24.4445C855.745 23.4268 856.421 22.5191 857.322 21.859C858.421 21.0339 859.773 20.6488 861.124 20.7037C860.167 19.1084 858.815 17.7607 857.182 16.798C857.182 16.8805 857.182 16.9906 857.182 17.0731C857.182 18.3383 856.76 19.5486 855.998 20.5663C855.774 20.3737 855.52 20.2087 855.267 20.0711C855.943 19.2185 856.281 18.1732 856.281 17.1005C856.281 16.4679 856.167 15.8353 855.914 15.2302C855.181 13.4699 853.464 12.2321 851.436 12.1771H851.296H851.155C849.915 12.1771 848.704 12.3421 847.521 12.6721C842.536 13.9924 838.622 17.8708 837.298 22.7942C836.452 23.8119 835.945 25.0497 835.918 26.3699C836.002 18.0907 842.762 11.3794 851.155 11.2969H851.323C851.408 11.2969 851.465 11.2969 851.549 11.2969C859.885 11.4344 866.617 18.0907 866.702 26.3699C866.702 26.425 866.702 26.48 866.702 26.535C866.702 26.59 866.702 26.645 866.702 26.7C866.673 28.0203 866.194 29.258 865.321 30.2758C864.532 31.211 863.434 31.8986 862.224 32.1737C861.772 32.2837 861.293 32.3387 860.843 32.3387C859.576 32.3387 858.337 31.9261 857.322 31.1835C856.956 31.6785 856.505 32.0911 856.027 32.4762C856.844 33.5489 857.266 34.8967 857.182 36.2445C858.815 35.2817 860.167 33.934 861.124 32.3387C861.491 32.3112 861.857 32.2562 862.224 32.1737C861.069 34.3741 859.237 36.1619 857.013 37.3172C855.267 38.2249 853.295 38.6924 851.323 38.6924C850.45 38.6924 849.633 38.2799 849.126 37.6198C848.76 37.1246 848.564 36.5471 848.564 35.9419C848.564 35.1167 848.957 34.3466 849.55 33.8515C850.112 33.989 850.732 34.0716 851.351 34.0716C850.31 34.0716 849.436 34.9242 849.436 35.9694C849.436 37.0146 850.281 37.8673 851.351 37.8673H851.38C852.422 37.8673 853.295 37.0146 853.295 35.9694C853.295 34.9242 852.449 34.0716 851.38 34.0716C849.972 34.0716 848.619 33.6864 847.409 32.9713C847.155 32.8063 846.902 32.6412 846.676 32.4762C846.17 32.0911 845.747 31.651 845.353 31.1835C845.578 31.0184 845.803 30.8258 846.028 30.6058C846.563 31.2935 847.24 31.8986 848.028 32.3387C849.042 32.9163 850.196 33.2189 851.38 33.2189C852.056 33.2189 852.704 33.4664 853.182 33.879C853.774 34.3741 854.168 35.1442 854.168 35.9694C854.168 36.5746 853.971 37.1521 853.604 37.6473C854.534 37.4547 855.436 37.1796 856.281 36.7671L856.252 36.7121ZM862.533 24.3345C862.364 23.3993 862.055 22.5191 861.631 21.6664C860.28 21.4465 858.899 21.804 857.829 22.6016C856.591 23.5368 855.858 24.9947 855.858 26.535C855.858 27.2776 855.689 27.9652 855.351 28.5979C854.928 29.4231 854.224 30.1107 853.407 30.5509C854.168 30.8258 854.844 31.266 855.436 31.8161C856.139 31.2935 856.731 30.6058 857.153 29.8631C857.744 28.8454 858.055 27.7178 858.055 26.535C858.055 25.8474 858.308 25.2422 858.73 24.7471C859.266 24.142 860.026 23.7844 860.843 23.7844C861.462 23.7844 862.055 23.977 862.533 24.3345ZM862.73 26.4525C862.702 25.4622 861.857 24.6646 860.814 24.6371C859.745 24.6371 858.899 25.4898 858.899 26.5075C858.899 26.535 858.899 26.5625 858.899 26.5625C858.928 27.5802 859.773 28.3779 860.814 28.3779C861.885 28.3779 862.73 27.5252 862.73 26.5075C862.73 26.5075 862.73 26.48 862.73 26.4525ZM858.73 28.3229C858.534 29.0655 858.252 29.8081 857.829 30.4683C858.899 31.2935 860.28 31.6235 861.631 31.4035C861.998 31.3485 862.364 31.2385 862.73 31.1009C864.561 30.3583 865.771 28.6254 865.828 26.6725V26.425C865.828 25.2147 865.659 24.0045 865.321 22.8217C863.997 17.9258 860.083 14.0474 855.126 12.6996C856.083 13.4973 856.731 14.57 857.041 15.7528V15.7803C859.632 17.128 861.631 19.3285 862.73 21.9966C863.322 23.3993 863.632 24.9397 863.632 26.5625C863.632 27.4427 863.208 28.2403 862.533 28.7355C862.055 29.093 861.462 29.3131 860.843 29.3131C859.998 29.2856 859.237 28.9004 858.73 28.3229ZM851.098 41.7456C842.762 41.608 836.03 34.9242 835.945 26.6725V26.5075V26.3424C835.974 25.0222 836.452 23.7844 837.326 22.7667C838.114 21.8315 839.213 21.1714 840.423 20.8688C840.875 20.7588 841.354 20.7037 841.804 20.7037C843.071 20.7037 844.31 21.1164 845.325 21.859C845.691 21.364 846.141 20.9513 846.62 20.5663C845.803 19.4936 845.381 18.1457 845.437 16.798C843.803 17.7607 842.452 19.1084 841.494 20.7037C841.128 20.7313 840.761 20.7863 840.396 20.8688C841.55 18.6684 843.381 16.8805 845.606 15.7253C847.352 14.8176 849.324 14.35 851.296 14.35C852.168 14.35 852.985 14.7626 853.492 15.4227C853.859 15.8903 854.055 16.4679 854.055 17.1005C854.055 17.9533 853.661 18.6959 853.07 19.191C852.478 19.0534 851.887 18.9709 851.267 18.9709C852.309 18.9709 853.182 18.1182 853.182 17.0731C853.182 16.0279 852.337 15.1752 851.267 15.1752H851.239C850.196 15.1752 849.324 16.0279 849.324 17.0731C849.324 18.1182 850.169 18.9709 851.239 18.9709C852.647 18.9709 853.999 19.356 855.21 20.0711C855.464 20.2362 855.717 20.4013 855.943 20.5663C856.421 20.9513 856.872 21.3915 857.266 21.859C857.041 22.0241 856.815 22.2166 856.591 22.4367C856.055 21.749 855.379 21.1439 854.59 20.7037C853.576 20.1262 852.422 19.8236 851.239 19.8236C850.591 19.8236 849.943 19.5761 849.436 19.1635C848.817 18.6409 848.45 17.8708 848.45 17.0731C848.45 16.4404 848.676 15.8628 849.014 15.3952C848.085 15.5877 847.155 15.8903 846.31 16.2753C846.028 17.8983 846.62 19.5761 847.887 20.6762C848.788 21.5015 850 21.969 851.239 21.969C851.971 21.969 852.675 22.1341 853.323 22.4641C854.168 22.9042 854.844 23.5919 855.295 24.417C855.041 25.0772 854.9 25.7648 854.928 26.48C854.928 24.472 853.295 22.8492 851.267 22.8492H851.239C849.239 22.8767 847.633 24.4995 847.633 26.48C847.633 27.1951 847.493 27.8827 847.268 28.5429C846.873 29.5606 846.197 30.4683 845.296 31.1284C844.198 31.9536 842.846 32.3387 841.494 32.2837C842.452 33.879 843.803 35.2267 845.437 36.1894C845.381 34.8417 845.775 33.5214 846.592 32.4487C846.818 32.6412 847.071 32.8063 847.324 32.9438C846.648 33.7965 846.31 34.8417 846.31 35.9145C846.31 36.5471 846.423 37.1796 846.676 37.7847C847.409 39.5451 849.126 40.7829 851.155 40.8379H851.408C852.647 40.8379 853.859 40.6729 855.041 40.3429C860.026 39.0225 863.941 35.1442 865.265 30.2208C866.109 29.203 866.617 27.9652 866.645 26.645C866.56 34.9242 859.801 41.6356 851.408 41.7181H851.239H851.07C851.155 41.7456 851.098 41.7456 851.098 41.7456ZM847.521 40.3704C846.563 39.5726 845.916 38.5 845.606 37.3172C845.606 37.3172 845.606 37.3172 845.606 37.2897C843.015 35.942 841.015 33.7415 839.917 31.0734C839.325 29.6157 839.015 28.0753 839.015 26.5075C839.015 25.6273 839.438 24.8296 840.114 24.3345C840.592 23.977 841.156 23.7569 841.804 23.7569C842.649 23.7569 843.409 24.142 843.917 24.7196C844.113 23.9495 844.395 23.2343 844.817 22.5741C843.747 21.749 842.367 21.419 841.015 21.6389C840.621 21.694 840.283 21.804 839.917 21.9415C838.086 22.6842 836.875 24.417 836.819 26.3699C836.819 26.425 836.819 26.4525 836.819 26.5075V26.645C836.819 27.8553 836.988 29.0655 837.326 30.2483C838.677 35.1717 842.564 39.05 847.521 40.3704ZM841.015 31.4035C842.367 31.6235 843.747 31.266 844.817 30.4683C846.056 29.5331 846.789 28.0753 846.789 26.535C846.789 25.7924 846.958 25.1047 847.296 24.472C847.718 23.6469 848.423 22.9593 849.239 22.5191H849.211C848.45 22.2441 847.775 21.804 847.183 21.2539C846.479 21.7765 845.887 22.4642 845.465 23.2068C844.874 24.2246 844.564 25.3522 844.564 26.535C844.564 27.2226 844.31 27.8278 843.888 28.3229C843.353 28.9279 842.593 29.2856 841.776 29.2856C841.128 29.2856 840.565 29.0655 840.086 28.708C840.311 29.6432 840.621 30.5508 841.015 31.4035ZM839.917 26.6175C839.973 27.6077 840.79 28.4329 841.832 28.4329C842.902 28.4329 843.747 27.5802 843.747 26.5625C843.747 26.535 843.747 26.5075 843.747 26.5075C843.719 25.4898 842.874 24.6921 841.832 24.6921C840.761 24.6921 839.917 25.5448 839.917 26.59C839.917 26.5625 839.917 26.59 839.917 26.6175ZM879.065 18.5584H883.29L887.233 29.0655H887.289L891.176 18.5584H895.401V33.3563H892.725V21.474H892.697L888.106 33.3563H886.219L881.684 21.474H881.656V33.3563H879.093L879.065 18.5584ZM902.78 18.5584H912.806V20.8688H905.484V24.6371H912.44V26.8376H905.455V31.0184H913.173V33.3563H902.752L902.78 18.5584ZM924.748 24.9397C925.142 24.9397 925.509 24.9122 925.902 24.8572C926.269 24.8021 926.607 24.6921 926.945 24.5546C927.255 24.3895 927.508 24.1695 927.705 23.8945C927.902 23.6194 928.015 23.2343 928.015 22.7942C928.015 22.3817 927.931 22.0516 927.733 21.804C927.536 21.5565 927.311 21.3364 927.029 21.1989C926.719 21.0339 926.409 20.9238 926.044 20.8963C925.706 20.8413 925.34 20.8138 924.973 20.8138H922.524V24.9672C922.551 24.9397 924.748 24.9397 924.748 24.9397ZM919.847 18.5584H925.114C925.818 18.5584 926.523 18.6409 927.198 18.7784C927.846 18.9159 928.438 19.1635 928.972 19.4936C929.479 19.8236 929.93 20.2912 930.212 20.8138C930.522 21.364 930.691 22.0241 930.691 22.7942C930.691 23.8669 930.381 24.7471 929.761 25.4072C929.141 26.0948 928.297 26.535 927.226 26.7826L931.254 33.3288H928.015L924.523 27.0575H922.551V33.3288H919.847V18.5584ZM948.265 22.0241C947.87 21.5015 947.336 21.0889 946.717 20.8688C946.124 20.6213 945.477 20.5113 944.829 20.5113C944.097 20.5113 943.365 20.6488 942.689 20.9238C942.07 21.1989 941.506 21.5839 941.027 22.0791C940.548 22.5741 940.182 23.1518 939.957 23.7844C939.703 24.472 939.562 25.1872 939.591 25.9024C939.591 26.7 939.703 27.4427 939.957 28.1028C940.21 28.7629 940.548 29.3406 940.999 29.8356C941.45 30.3033 941.984 30.6883 942.604 30.9634C943.223 31.2385 943.928 31.3485 944.716 31.3485C945.533 31.3485 946.238 31.1835 946.886 30.8809C947.477 30.5783 948.012 30.1657 948.406 29.6431L950.575 31.1284C949.927 31.9536 949.082 32.5862 948.125 33.0263C947.167 33.4664 946.012 33.714 944.716 33.714C943.534 33.714 942.435 33.5214 941.45 33.1364C940.491 32.7788 939.619 32.2287 938.887 31.541C938.154 30.8258 937.591 30.0007 937.225 29.0655C936.83 28.1028 936.634 27.0576 936.634 25.9024C936.634 24.7196 936.83 23.6469 937.253 22.6842C937.675 21.7215 938.239 20.9238 938.971 20.2637C939.731 19.5761 940.605 19.0534 941.562 18.7234C943.083 18.1732 944.745 18.0357 946.322 18.3108C946.857 18.3933 947.364 18.5309 947.843 18.7234C948.322 18.916 948.772 19.1359 949.223 19.411C949.645 19.6861 950.011 20.0161 950.321 20.4013C950.321 20.4563 948.265 22.0241 948.265 22.0241ZM968.318 27.9102C968.318 28.7904 968.149 29.6157 967.84 30.3308C967.558 31.0184 967.108 31.651 966.544 32.1462C965.981 32.6412 965.333 33.0538 964.629 33.3013C963.869 33.5764 963.023 33.714 962.207 33.714C961.39 33.714 960.573 33.5764 959.784 33.3013C959.081 33.0538 958.405 32.6412 957.841 32.1462C957.278 31.6235 956.855 31.0184 956.545 30.3308C956.236 29.6157 956.095 28.8179 956.095 27.9102V18.5584H958.798V27.8003C958.798 28.2403 958.855 28.653 958.968 29.093C959.081 29.5056 959.277 29.8906 959.531 30.2208C959.784 30.5508 960.151 30.8258 960.573 31.0459C960.996 31.266 961.559 31.3485 962.178 31.3485C962.826 31.3485 963.362 31.2385 963.784 31.0459C964.207 30.8534 964.545 30.5783 964.826 30.2208C965.079 29.8906 965.277 29.5056 965.389 29.093C965.502 28.6805 965.558 28.2403 965.558 27.8003V18.5584H968.262C968.318 18.5584 968.318 27.9102 968.318 27.9102ZM980.457 24.9397C980.852 24.9397 981.218 24.9122 981.612 24.8572C982.007 24.8021 982.345 24.6921 982.655 24.5546C982.964 24.3895 983.217 24.1695 983.415 23.8945C983.612 23.6194 983.724 23.2343 983.724 22.7942C983.724 22.3817 983.639 22.0516 983.443 21.804C983.274 21.5565 983.02 21.3364 982.738 21.1989C982.429 21.0339 982.119 20.9238 981.753 20.8963C981.415 20.8413 981.049 20.8138 980.683 20.8138H978.232V24.9672C978.26 24.9397 980.457 24.9397 980.457 24.9397ZM975.557 18.5584H980.823C981.528 18.5584 982.231 18.6409 982.908 18.7784C983.555 18.9159 984.146 19.1635 984.682 19.4936C985.189 19.8236 985.611 20.2637 985.921 20.8138C986.231 21.364 986.4 22.0241 986.4 22.7942C986.4 23.8669 986.09 24.7471 985.47 25.4072C984.851 26.0948 984.006 26.535 982.936 26.7826L986.964 33.3288H983.724L980.232 27.0575H978.26V33.3288H975.557C975.557 33.3563 975.557 18.5584 975.557 18.5584ZM996.567 26.9476L990.878 18.5859H994.174L997.975 24.8021L1001.83 18.5859H1004.96L999.271 26.9476V33.3563H996.567V26.9476Z" fill="white"/>
</g>
<mask id="mask10_38_1897" style="mask-type:luminance" maskUnits="userSpaceOnUse" x="1063" y="0" width="126" height="52">
<path d="M1188.69 0.796875H1063.75V51.1947H1188.69V0.796875Z" fill="white"/>
</mask>
<g mask="url(#mask10_38_1897)">
<path d="M1084.3 31.4091H1084.65V37.7579H1083.61C1076.86 37.7579 1072.94 33.9195 1072.94 27.633V24.3964L1075.15 23.8362C1075.8 23.6703 1076.38 23.3383 1076.84 22.8611C1077.29 22.3839 1077.6 21.7823 1077.75 21.1391C1077.9 20.4959 1077.84 19.8112 1077.6 19.1888C1077.37 18.5664 1076.98 18.0269 1076.46 17.6119C1075.95 17.197 1075.32 16.9481 1074.65 16.8858C1073.98 16.8235 1073.32 16.9273 1072.74 17.2178C1072.13 17.5082 1071.64 17.9646 1071.28 18.5249C1070.93 19.085 1070.75 19.7282 1070.75 20.3921V34.2307H1063.9V20.1639C1063.9 19.7489 1063.92 19.3133 1063.99 18.8983C1064.63 13.8981 1068.99 10.0391 1074.28 10.0391C1079.08 10.0391 1083.12 13.2135 1084.3 17.529C1084.92 19.7905 1084.71 22.1972 1083.74 24.3342C1082.91 26.1393 1081.55 27.6538 1079.87 28.6912C1080.45 30.9942 1081.64 31.4091 1084.3 31.4091ZM1101.22 19.2096V23.0894H1100.58C1099.24 23.0894 1098.2 23.4628 1097.46 24.189C1096.71 24.9151 1096.34 25.911 1096.34 27.1766V34.1686H1092.58V19.4377H1096.34V21.3465C1097.46 19.9149 1098.87 19.2096 1100.58 19.2096H1101.22ZM1117.38 28.1725H1105.96C1106.18 29.0647 1106.73 29.8531 1107.48 30.3925C1108.26 30.9527 1109.23 31.2431 1110.18 31.2016C1110.99 31.2016 1111.8 31.0356 1112.53 30.6829C1113.2 30.3925 1113.78 29.936 1114.22 29.3759L1116.73 31.5751C1115.94 32.5087 1114.94 33.2557 1113.82 33.7536C1112.63 34.2723 1111.34 34.5421 1110.04 34.5213C1108.58 34.5421 1107.13 34.1893 1105.84 33.5046C1104.61 32.8615 1103.61 31.8863 1102.91 30.7037C1102.22 29.5004 1101.85 28.1517 1101.85 26.7824C1101.85 25.413 1102.19 24.0438 1102.87 22.8403C1103.53 21.6785 1104.5 20.7241 1105.69 20.0809C1106.92 19.417 1108.28 19.0642 1109.68 19.085C1111.89 19.085 1113.73 19.8112 1115.21 21.2843C1116.68 22.7574 1117.44 24.6039 1117.44 26.8239C1117.48 27.2804 1117.44 27.7161 1117.38 28.1725ZM1112.07 23.2138C1111.38 22.6744 1110.55 22.3839 1109.68 22.3839C1108.81 22.3839 1107.98 22.6744 1107.29 23.2138C1106.6 23.774 1106.13 24.5624 1105.92 25.413H1113.44C1113.26 24.5416 1112.76 23.774 1112.07 23.2138ZM1141.57 20.5996C1142.56 21.5955 1143.09 22.9234 1143.09 24.6039V34.1893H1139.33V25.7242C1139.33 24.8114 1139.06 24.1059 1138.53 23.5666C1138.02 23.0271 1137.32 22.7574 1136.43 22.7574C1135.52 22.7574 1134.77 23.0271 1134.2 23.5872C1133.61 24.1475 1133.34 24.8736 1133.34 25.7865V34.1893H1129.58V25.7242C1129.58 24.8321 1129.3 24.1059 1128.79 23.5666C1128.24 23.0271 1127.54 22.7574 1126.67 22.7574C1126.25 22.7366 1125.86 22.7988 1125.46 22.944C1125.08 23.0894 1124.74 23.3175 1124.42 23.5872C1124.13 23.8778 1123.9 24.2097 1123.76 24.6039C1123.61 24.9774 1123.55 25.3923 1123.55 25.7865V34.1893H1119.78V19.4585H1123.57V20.9731C1124.67 19.7282 1126.12 19.1058 1127.94 19.1058C1128.89 19.085 1129.83 19.2925 1130.68 19.7282C1131.47 20.1432 1132.12 20.7448 1132.57 21.4917C1133.8 19.8942 1135.46 19.085 1137.58 19.085C1139.25 19.1058 1140.57 19.6037 1141.57 20.5996ZM1161.08 26.8031C1161.08 29.0024 1160.32 30.8282 1158.81 32.3012C1157.29 33.7743 1155.42 34.5213 1153.15 34.5005C1150.9 34.5005 1149.01 33.7536 1147.5 32.2806C1145.98 30.8075 1145.21 28.9816 1145.21 26.7824C1145.21 24.5831 1145.98 22.7574 1147.5 21.2843C1149.01 19.8112 1150.9 19.0642 1153.15 19.0642C1155.4 19.0642 1157.29 19.8112 1158.81 21.2843C1160.32 22.7781 1161.1 24.6246 1161.08 26.8031ZM1156.06 29.7285C1156.79 28.9401 1157.2 27.9028 1157.2 26.8239C1157.2 25.745 1156.79 24.7076 1156.06 23.9192C1155.69 23.5458 1155.23 23.2346 1154.73 23.0271C1154.23 22.8196 1153.72 22.7159 1153.17 22.7159C1152.63 22.7159 1152.11 22.8196 1151.62 23.0271C1151.11 23.2346 1150.66 23.525 1150.28 23.9192C1149.54 24.7076 1149.12 25.745 1149.12 26.8239C1149.12 27.9028 1149.54 28.9401 1150.28 29.7285C1151.05 30.4755 1152.09 30.8904 1153.17 30.8904C1154.25 30.8697 1155.29 30.4547 1156.06 29.7285ZM1167.95 22.8819V29.0024C1167.95 30.268 1168.64 30.8904 1169.99 30.8904C1170.65 30.8697 1171.32 30.7037 1171.92 30.3925V33.8989C1171.07 34.3346 1170.14 34.5627 1169.18 34.5421C1167.53 34.5421 1166.29 34.1063 1165.45 33.2349C1164.62 32.3635 1164.22 31.1601 1164.22 29.6248V22.9026H1161.86V19.4792H1164.22V17.031L1167.97 15.7447V19.4792H1171.94V22.9026H1167.95V22.8819ZM1188.55 28.1725H1177.14C1177.37 29.0647 1177.91 29.8531 1178.66 30.3925C1179.45 30.9527 1180.41 31.2431 1181.36 31.2016C1182.17 31.2016 1182.99 31.0356 1183.71 30.6829C1184.37 30.3925 1184.96 29.936 1185.41 29.3759L1187.93 31.5751C1187.15 32.5087 1186.15 33.2557 1185.03 33.7536C1183.84 34.2723 1182.55 34.5421 1181.23 34.5213C1179.79 34.5421 1178.33 34.1893 1177.04 33.5046C1175.81 32.8615 1174.81 31.8863 1174.11 30.7037C1173.42 29.5004 1173.05 28.1517 1173.05 26.7824C1173.05 25.413 1173.4 24.0438 1174.06 22.8403C1174.74 21.6785 1175.71 20.7241 1176.89 20.0809C1178.12 19.417 1179.49 19.0642 1180.89 19.085C1183.08 19.085 1184.94 19.8112 1186.41 21.2843C1187.89 22.7574 1188.64 24.6039 1188.64 26.8239C1188.64 27.2804 1188.62 27.7368 1188.55 28.1725ZM1183.25 23.2138C1182.57 22.6744 1181.74 22.3839 1180.87 22.3839C1179.99 22.3839 1179.16 22.6744 1178.47 23.2138C1177.79 23.774 1177.31 24.5624 1177.1 25.413H1184.63C1184.44 24.5416 1183.94 23.774 1183.25 23.2138Z" fill="white"/>
</g>
</g>
</g>
<g clip-path="url(#clip3_38_1897)">
<g clip-path="url(#clip4_38_1897)">
<g clip-path="url(#clip5_38_1897)">
<mask id="mask11_38_1897" style="mask-type:luminance" maskUnits="userSpaceOnUse" x="1248" y="0" width="66" height="52">
<path d="M1313.65 0.796875H1248.55V51.1947H1313.65V0.796875Z" fill="white"/>
</mask>
<g mask="url(#mask11_38_1897)">
<path fill-rule="evenodd" clip-rule="evenodd" d="M1280.77 35.0142L1277.14 34.1618V19.7757L1280.77 19.0956V35.0142ZM1306.16 31.6221C1303.53 31.6307 1301.39 29.5386 1301.37 26.9472V26.9214C1301.37 24.3731 1303.5 22.281 1306.15 22.281C1308.8 22.281 1310.92 24.3731 1310.92 26.9214C1310.93 29.5128 1308.8 31.6135 1306.17 31.6221H1306.16ZM1314.39 26.9214C1314.39 31.3982 1310.7 35.0228 1306.16 35.0228C1301.61 35.0228 1297.93 31.3982 1297.93 26.9214C1297.93 22.5049 1301.62 18.8803 1306.17 18.8803C1310.71 18.8803 1314.39 22.5049 1314.39 26.9214ZM1267.7 34.1704L1271.26 34.9022V25.2168C1271.26 20.5677 1267.58 18.932 1265.05 18.932C1263.38 18.932 1262 19.328 1260.79 20.5161C1259.52 19.328 1258.03 18.8717 1256.82 18.8717C1255.03 18.8717 1253.54 19.6035 1252.5 20.8518V19.2075L1248.87 19.8877V34.1618L1252.5 34.8936V25.1049C1252.5 23.5207 1253.65 22.4446 1255.43 22.4446C1257.1 22.4446 1258.3 23.5207 1258.3 25.1049V34.1704L1261.87 34.9022V25.1049C1261.87 23.5207 1263.08 22.4446 1264.81 22.4446C1266.48 22.4446 1267.69 23.5207 1267.69 25.1049L1267.7 34.1704ZM1295.22 18.8803L1293.08 19.1644C1289.11 20.0685 1286.52 21.3168 1286.52 25.6215V34.1704L1290.15 34.8506V26.1293C1290.15 24.1492 1291.31 23.2366 1293.09 22.9009L1295.23 22.5651L1295.22 18.8803ZM1277.32 12.9829C1276.45 13.8525 1276.45 15.2299 1277.32 16.0995C1278.2 16.9949 1279.66 17.0035 1280.56 16.134L1280.6 16.0995C1281.46 15.2386 1281.46 13.8439 1280.6 12.9829C1279.67 12.1307 1278.23 12.1307 1277.32 12.9829Z" fill="white"/>
</g>
</g>
</g>
</g>
</g>
<defs>
<linearGradient id="paint0_linear_38_1897" x1="0" y1="25.9958" x2="1259.95" y2="25.9958" gradientUnits="userSpaceOnUse">
<stop stop-opacity="0"/>
<stop offset="0.125"/>
<stop offset="0.875"/>
<stop offset="1" stop-opacity="0"/>
</linearGradient>
<clipPath id="clip0_38_1897">
<rect width="1259.95" height="50.3979" fill="white" transform="translate(0 0.796875)"/>
</clipPath>
<clipPath id="clip1_38_1897">
<rect width="1248.4" height="50.3979" fill="white" transform="translate(0 0.796875)"/>
</clipPath>
<clipPath id="clip2_38_1897">
<rect width="1189.6" height="50.3979" fill="white" transform="translate(0 0.796875)"/>
</clipPath>
<clipPath id="clip3_38_1897">
<rect width="1248.4" height="50.3979" fill="white" transform="translate(1248.4 0.796875)"/>
</clipPath>
<clipPath id="clip4_38_1897">
<rect width="1189.6" height="50.3979" fill="white" transform="translate(1248.4 0.796875)"/>
</clipPath>
<clipPath id="clip5_38_1897">
<rect width="1189.6" height="50.3979" fill="white" transform="translate(1248.4 0.796875)"/>
</clipPath>
</defs>
</svg>
