<svg width="50" height="50" viewBox="0 0 50 50" fill="none" xmlns="http://www.w3.org/2000/svg">
<path d="M43.3334 16.2422C45.5016 20.777 45.9132 25.9542 44.4888 30.7746C43.0643 35.595 39.9048 39.7169 35.62 42.3447C31.3352 44.9726 26.2288 45.9201 21.2865 45.0045C16.3441 44.0889 11.9161 41.3749 8.85707 37.3865C5.79803 33.3981 4.3248 28.4179 4.72173 23.4071C5.11866 18.3963 7.35759 13.7102 11.0064 10.2531C14.6553 6.79607 19.4553 4.81313 24.4802 4.68704C29.5051 4.56094 34.3986 6.30062 38.2162 9.57033L42.6439 5.14064C42.9371 4.84745 43.3348 4.68274 43.7494 4.68274C44.164 4.68274 44.5617 4.84745 44.8549 5.14064C45.1481 5.43383 45.3128 5.83148 45.3128 6.24611C45.3128 6.66074 45.1481 7.05839 44.8549 7.35158L26.1049 26.1016C25.8117 26.3948 25.414 26.5595 24.9994 26.5595C24.5848 26.5595 24.1871 26.3948 23.8939 26.1016C23.6008 25.8084 23.436 25.4107 23.436 24.9961C23.436 24.5815 23.6008 24.1838 23.8939 23.8906L29.308 18.4766C27.8407 17.5062 26.0889 17.0594 24.3361 17.2085C22.5833 17.3576 20.9321 18.094 19.6498 19.2983C18.3676 20.5026 17.5293 22.1045 17.2707 23.8445C17.0122 25.5845 17.3484 27.3609 18.225 28.8861C19.1017 30.4112 20.4674 31.5959 22.1011 32.2483C23.7348 32.9007 25.5408 32.9826 27.2269 32.4808C28.913 31.979 30.3803 30.9228 31.3914 29.4833C32.4025 28.0438 32.8982 26.3051 32.7982 24.5488C32.7867 24.3437 32.8157 24.1382 32.8835 23.9442C32.9514 23.7502 33.0568 23.5715 33.1937 23.4182C33.3307 23.265 33.4964 23.1402 33.6816 23.051C33.8668 22.9618 34.0677 22.91 34.2729 22.8985C34.6873 22.8751 35.0939 23.0174 35.4035 23.2939C35.5567 23.4309 35.6815 23.5967 35.7707 23.7818C35.8599 23.967 35.9117 24.1679 35.9232 24.3731C36.0657 26.859 35.3557 29.3191 33.9105 31.3467C32.4654 33.3744 30.3716 34.8483 27.9753 35.5248C25.579 36.2014 23.0236 36.04 20.7314 35.0674C18.4393 34.0948 16.5476 32.3692 15.369 30.1758C14.1904 27.9825 13.7955 25.4526 14.2495 23.0044C14.7036 20.5561 15.9794 18.3361 17.8661 16.7112C19.7528 15.0863 22.1375 14.1538 24.6259 14.0678C27.1144 13.9818 29.5578 14.7475 31.5521 16.2383L35.9955 11.7949C32.7393 9.09141 28.599 7.68627 24.3698 7.84938C20.1407 8.01249 16.1209 9.73236 13.0826 12.6787C10.0442 15.625 8.20157 19.5899 7.90848 23.812C7.61539 28.0342 8.89254 32.2157 11.4946 35.5536C14.0967 38.8914 17.8403 41.1502 22.0064 41.8961C26.1724 42.642 30.4671 41.8224 34.0657 39.5947C37.6643 37.367 40.3129 33.8884 41.5029 29.8268C42.6929 25.7653 42.3404 21.4073 40.5131 17.5899C40.3344 17.2159 40.3116 16.7862 40.4496 16.3954C40.5877 16.0045 40.8754 15.6846 41.2494 15.5059C41.6234 15.3272 42.0531 15.3043 42.4439 15.4424C42.8347 15.5805 43.1547 15.8682 43.3334 16.2422Z" fill="black"/>
<path d="M43.3334 16.2422C45.5016 20.777 45.9132 25.9542 44.4888 30.7746C43.0643 35.595 39.9048 39.7169 35.62 42.3447C31.3352 44.9726 26.2288 45.9201 21.2865 45.0045C16.3441 44.0889 11.9161 41.3749 8.85707 37.3865C5.79803 33.3981 4.3248 28.4179 4.72173 23.4071C5.11866 18.3963 7.35759 13.7102 11.0064 10.2531C14.6553 6.79607 19.4553 4.81313 24.4802 4.68704C29.5051 4.56094 34.3986 6.30062 38.2162 9.57033L42.6439 5.14064C42.9371 4.84745 43.3348 4.68274 43.7494 4.68274C44.164 4.68274 44.5617 4.84745 44.8549 5.14064C45.1481 5.43383 45.3128 5.83148 45.3128 6.24611C45.3128 6.66074 45.1481 7.05839 44.8549 7.35158L26.1049 26.1016C25.8117 26.3948 25.414 26.5595 24.9994 26.5595C24.5848 26.5595 24.1871 26.3948 23.8939 26.1016C23.6008 25.8084 23.436 25.4107 23.436 24.9961C23.436 24.5815 23.6008 24.1838 23.8939 23.8906L29.308 18.4766C27.8407 17.5062 26.0889 17.0594 24.3361 17.2085C22.5833 17.3576 20.9321 18.094 19.6498 19.2983C18.3676 20.5026 17.5293 22.1045 17.2707 23.8445C17.0122 25.5845 17.3484 27.3609 18.225 28.8861C19.1017 30.4112 20.4674 31.5959 22.1011 32.2483C23.7348 32.9007 25.5408 32.9826 27.2269 32.4808C28.913 31.979 30.3803 30.9228 31.3914 29.4833C32.4025 28.0438 32.8982 26.3051 32.7982 24.5488C32.7867 24.3437 32.8157 24.1382 32.8835 23.9442C32.9514 23.7502 33.0568 23.5715 33.1937 23.4182C33.3307 23.265 33.4964 23.1402 33.6816 23.051C33.8668 22.9618 34.0677 22.91 34.2729 22.8985C34.6873 22.8751 35.0939 23.0174 35.4035 23.2939C35.5567 23.4309 35.6815 23.5967 35.7707 23.7818C35.8599 23.967 35.9117 24.1679 35.9232 24.3731C36.0657 26.859 35.3557 29.3191 33.9105 31.3467C32.4654 33.3744 30.3716 34.8483 27.9753 35.5248C25.579 36.2014 23.0236 36.04 20.7314 35.0674C18.4393 34.0948 16.5476 32.3692 15.369 30.1758C14.1904 27.9825 13.7955 25.4526 14.2495 23.0044C14.7036 20.5561 15.9794 18.3361 17.8661 16.7112C19.7528 15.0863 22.1375 14.1538 24.6259 14.0678C27.1144 13.9818 29.5578 14.7475 31.5521 16.2383L35.9955 11.7949C32.7393 9.09141 28.599 7.68627 24.3698 7.84938C20.1407 8.01249 16.1209 9.73236 13.0826 12.6787C10.0442 15.625 8.20157 19.5899 7.90848 23.812C7.61539 28.0342 8.89254 32.2157 11.4946 35.5536C14.0967 38.8914 17.8403 41.1502 22.0064 41.8961C26.1724 42.642 30.4671 41.8224 34.0657 39.5947C37.6643 37.367 40.3129 33.8884 41.5029 29.8268C42.6929 25.7653 42.3404 21.4073 40.5131 17.5899C40.3344 17.2159 40.3116 16.7862 40.4496 16.3954C40.5877 16.0045 40.8754 15.6846 41.2494 15.5059C41.6234 15.3272 42.0531 15.3043 42.4439 15.4424C42.8347 15.5805 43.1547 15.8682 43.3334 16.2422Z" fill="url(#paint0_linear_38_2477)"/>
<defs>
<linearGradient id="paint0_linear_38_2477" x1="4.6582" y1="11.1948" x2="48.9638" y2="16.8585" gradientUnits="userSpaceOnUse">
<stop stop-color="#FF8E37"/>
<stop offset="1" stop-color="#F05306"/>
</linearGradient>
</defs>
</svg>
