<svg width="50" height="50" viewBox="0 0 50 50" fill="none" xmlns="http://www.w3.org/2000/svg">
<path d="M22.9009 30.8437C24.995 29.4496 26.5849 27.4185 27.4355 25.0509C28.286 22.6832 28.352 20.1047 27.6238 17.6967C26.8955 15.2886 25.4116 13.1789 23.3916 11.6794C21.3715 10.1799 18.9225 9.37025 16.4067 9.37025C13.891 9.37025 11.442 10.1799 9.42192 11.6794C7.40187 13.1789 5.91799 15.2886 5.18973 17.6967C4.46147 20.1047 4.52749 22.6832 5.37803 25.0509C6.22856 27.4185 7.81846 29.4496 9.9126 30.8437C6.1245 32.2399 2.88937 34.8235 0.689947 38.209C0.574353 38.3808 0.494061 38.5739 0.453738 38.777C0.413416 38.9801 0.413867 39.1892 0.455066 39.3921C0.496265 39.595 0.57739 39.7877 0.693725 39.959C0.81006 40.1304 0.959285 40.2768 1.13273 40.3899C1.30617 40.5031 1.50036 40.5806 1.70403 40.618C1.90769 40.6554 2.11676 40.652 2.31908 40.6079C2.5214 40.5638 2.71294 40.4799 2.88256 40.3611C3.05218 40.2424 3.1965 40.0911 3.30713 39.916C4.72586 37.734 6.66721 35.9409 8.95486 34.6996C11.2425 33.4583 13.804 32.8081 16.4067 32.8081C19.0095 32.8081 21.571 33.4583 23.8586 34.6996C26.1463 35.9409 28.0876 37.734 29.5064 39.916C29.7355 40.2566 30.0895 40.4934 30.4919 40.575C30.8942 40.6567 31.3125 40.5768 31.6563 40.3525C32.0002 40.1282 32.242 39.7776 32.3294 39.3765C32.4168 38.9754 32.3429 38.556 32.1235 38.209C29.9241 34.8235 26.689 32.2399 22.9009 30.8437ZM7.81299 21.0938C7.81299 19.3941 8.31701 17.7326 9.2613 16.3193C10.2056 14.9061 11.5478 13.8046 13.1181 13.1542C14.6884 12.5037 16.4163 12.3335 18.0833 12.6651C19.7503 12.9967 21.2816 13.8152 22.4834 15.0171C23.6853 16.2189 24.5038 17.7502 24.8354 19.4172C25.167 21.0842 24.9968 22.8121 24.3463 24.3824C23.6959 25.9527 22.5944 27.2949 21.1812 28.2392C19.7679 29.1835 18.1064 29.6875 16.4067 29.6875C14.1283 29.6849 11.944 28.7787 10.3329 27.1676C8.72182 25.5565 7.81558 23.3722 7.81299 21.0938ZM48.856 40.3711C48.5089 40.5974 48.0861 40.6766 47.6807 40.5913C47.2752 40.5059 46.9203 40.263 46.6939 39.916C45.2768 37.7327 43.3357 35.9388 41.0476 34.698C38.7595 33.4572 36.1971 32.809 33.5942 32.8125C33.1798 32.8125 32.7824 32.6479 32.4894 32.3549C32.1964 32.0618 32.0317 31.6644 32.0317 31.25C32.0317 30.8356 32.1964 30.4382 32.4894 30.1451C32.7824 29.8521 33.1798 29.6875 33.5942 29.6875C34.8598 29.6863 36.1095 29.4056 37.254 28.8655C38.3985 28.3253 39.4096 27.539 40.215 26.5628C41.0204 25.5866 41.6003 24.4446 41.9131 23.2183C42.226 21.992 42.2642 20.7118 42.0249 19.469C41.7856 18.2263 41.2749 17.0517 40.529 16.0293C39.7832 15.0068 38.8208 14.1617 37.7105 13.5544C36.6002 12.947 35.3694 12.5923 34.1062 12.5158C32.8429 12.4392 31.5784 12.6425 30.4028 13.1113C30.2112 13.1942 30.0048 13.2378 29.796 13.2395C29.5872 13.2413 29.3802 13.2012 29.1872 13.1216C28.9941 13.042 28.819 12.9245 28.6721 12.7761C28.5253 12.6276 28.4096 12.4513 28.3321 12.2574C28.2545 12.0635 28.2166 11.8561 28.2206 11.6473C28.2246 11.4385 28.2704 11.2327 28.3553 11.0419C28.4402 10.8511 28.5624 10.6793 28.7149 10.5366C28.8673 10.3938 29.0467 10.2831 29.2427 10.2109C31.933 9.13799 34.9254 9.09938 37.6426 10.1026C40.3597 11.1057 42.6091 13.0796 43.9567 15.6434C45.3044 18.2072 45.6549 21.1792 44.9405 23.9862C44.2262 26.7931 42.4977 29.2361 40.0884 30.8437C43.8765 32.2399 47.1116 34.8235 49.311 38.209C49.5374 38.5561 49.6166 38.9788 49.5312 39.3843C49.4459 39.7897 49.203 40.1447 48.856 40.3711Z" fill="black"/>
<path d="M22.9009 30.8437C24.995 29.4496 26.5849 27.4185 27.4355 25.0509C28.286 22.6832 28.352 20.1047 27.6238 17.6967C26.8955 15.2886 25.4116 13.1789 23.3916 11.6794C21.3715 10.1799 18.9225 9.37025 16.4067 9.37025C13.891 9.37025 11.442 10.1799 9.42192 11.6794C7.40187 13.1789 5.91799 15.2886 5.18973 17.6967C4.46147 20.1047 4.52749 22.6832 5.37803 25.0509C6.22856 27.4185 7.81846 29.4496 9.9126 30.8437C6.1245 32.2399 2.88937 34.8235 0.689947 38.209C0.574353 38.3808 0.494061 38.5739 0.453738 38.777C0.413416 38.9801 0.413867 39.1892 0.455066 39.3921C0.496265 39.595 0.57739 39.7877 0.693725 39.959C0.81006 40.1304 0.959285 40.2768 1.13273 40.3899C1.30617 40.5031 1.50036 40.5806 1.70403 40.618C1.90769 40.6554 2.11676 40.652 2.31908 40.6079C2.5214 40.5638 2.71294 40.4799 2.88256 40.3611C3.05218 40.2424 3.1965 40.0911 3.30713 39.916C4.72586 37.734 6.66721 35.9409 8.95486 34.6996C11.2425 33.4583 13.804 32.8081 16.4067 32.8081C19.0095 32.8081 21.571 33.4583 23.8586 34.6996C26.1463 35.9409 28.0876 37.734 29.5064 39.916C29.7355 40.2566 30.0895 40.4934 30.4919 40.575C30.8942 40.6567 31.3125 40.5768 31.6563 40.3525C32.0002 40.1282 32.242 39.7776 32.3294 39.3765C32.4168 38.9754 32.3429 38.556 32.1235 38.209C29.9241 34.8235 26.689 32.2399 22.9009 30.8437ZM7.81299 21.0938C7.81299 19.3941 8.31701 17.7326 9.2613 16.3193C10.2056 14.9061 11.5478 13.8046 13.1181 13.1542C14.6884 12.5037 16.4163 12.3335 18.0833 12.6651C19.7503 12.9967 21.2816 13.8152 22.4834 15.0171C23.6853 16.2189 24.5038 17.7502 24.8354 19.4172C25.167 21.0842 24.9968 22.8121 24.3463 24.3824C23.6959 25.9527 22.5944 27.2949 21.1812 28.2392C19.7679 29.1835 18.1064 29.6875 16.4067 29.6875C14.1283 29.6849 11.944 28.7787 10.3329 27.1676C8.72182 25.5565 7.81558 23.3722 7.81299 21.0938ZM48.856 40.3711C48.5089 40.5974 48.0861 40.6766 47.6807 40.5913C47.2752 40.5059 46.9203 40.263 46.6939 39.916C45.2768 37.7327 43.3357 35.9388 41.0476 34.698C38.7595 33.4572 36.1971 32.809 33.5942 32.8125C33.1798 32.8125 32.7824 32.6479 32.4894 32.3549C32.1964 32.0618 32.0317 31.6644 32.0317 31.25C32.0317 30.8356 32.1964 30.4382 32.4894 30.1451C32.7824 29.8521 33.1798 29.6875 33.5942 29.6875C34.8598 29.6863 36.1095 29.4056 37.254 28.8655C38.3985 28.3253 39.4096 27.539 40.215 26.5628C41.0204 25.5866 41.6003 24.4446 41.9131 23.2183C42.226 21.992 42.2642 20.7118 42.0249 19.469C41.7856 18.2263 41.2749 17.0517 40.529 16.0293C39.7832 15.0068 38.8208 14.1617 37.7105 13.5544C36.6002 12.947 35.3694 12.5923 34.1062 12.5158C32.8429 12.4392 31.5784 12.6425 30.4028 13.1113C30.2112 13.1942 30.0048 13.2378 29.796 13.2395C29.5872 13.2413 29.3802 13.2012 29.1872 13.1216C28.9941 13.042 28.819 12.9245 28.6721 12.7761C28.5253 12.6276 28.4096 12.4513 28.3321 12.2574C28.2545 12.0635 28.2166 11.8561 28.2206 11.6473C28.2246 11.4385 28.2704 11.2327 28.3553 11.0419C28.4402 10.8511 28.5624 10.6793 28.7149 10.5366C28.8673 10.3938 29.0467 10.2831 29.2427 10.2109C31.933 9.13799 34.9254 9.09938 37.6426 10.1026C40.3597 11.1057 42.6091 13.0796 43.9567 15.6434C45.3044 18.2072 45.6549 21.1792 44.9405 23.9862C44.2262 26.7931 42.4977 29.2361 40.0884 30.8437C43.8765 32.2399 47.1116 34.8235 49.311 38.209C49.5374 38.5561 49.6166 38.9788 49.5312 39.3843C49.4459 39.7897 49.203 40.1447 48.856 40.3711Z" fill="url(#paint0_linear_38_2471)"/>
<defs>
<linearGradient id="paint0_linear_38_2471" x1="0.423828" y1="14.3801" x2="52.7298" y2="24.8867" gradientUnits="userSpaceOnUse">
<stop stop-color="#FF8E37"/>
<stop offset="1" stop-color="#F05306"/>
</linearGradient>
</defs>
</svg>
