<svg width="17" height="21" viewBox="0 0 17 21" fill="none" xmlns="http://www.w3.org/2000/svg">
<path fill-rule="evenodd" clip-rule="evenodd" d="M2.1 8.16667V6.06667C2.1 2.71623 4.81623 0 8.16667 0C11.5171 0 14.2333 2.71623 14.2333 6.06667V8.16667H14.7C15.6023 8.16667 16.3333 8.89765 16.3333 9.8V19.3667C16.3333 20.269 15.6023 21 14.7 21H1.63333C0.730987 21 0 20.269 0 19.3667V9.8C0 8.89765 0.730987 8.16667 1.63333 8.16667H2.1ZM4.9 6.06667C4.9 4.26288 6.36288 2.8 8.16667 2.8C9.97045 2.8 11.4333 4.26288 11.4333 6.06667V8.16667H4.9V6.06667ZM8.98333 14.2863C9.40443 14.0174 9.68333 13.5453 9.68333 13.0084C9.68333 12.1708 9.00429 11.4918 8.16667 11.4918C7.32905 11.4918 6.65 12.1708 6.65 13.0084C6.65 13.5453 6.9289 14.0174 7.35 14.2863V16.8583C7.35 17.3095 7.71549 17.675 8.16667 17.675C8.61784 17.675 8.98333 17.3095 8.98333 16.8583V14.2863Z" fill="white"/>
</svg>
