<svg width="48" height="48" viewBox="0 0 48 48" fill="none" xmlns="http://www.w3.org/2000/svg">
<path d="M43.104 25.5171C41.2083 25.5171 39.596 26.7487 39.022 28.4533H36.331L33.7963 25.9185C33.5393 25.6614 33.1906 25.517 32.8271 25.517H25.3889V22.3857H32.8271C33.1907 22.3857 33.5393 22.2412 33.7963 21.9842L36.331 19.4494H39.022C40.6306 24.0076 47.315 22.9713 47.411 18.0786C47.3145 13.1852 40.6297 12.1504 39.022 16.708H35.7633C35.3997 16.708 35.0511 16.8525 34.7941 17.1095L32.2594 19.6444H25.3888V15.045H29.8908C30.2544 15.045 30.603 14.9006 30.8599 14.6435L33.8464 11.657C36.6338 13.0981 40.1124 10.9539 40.0703 7.80165C40.0703 5.42682 38.1382 3.49472 35.7634 3.49472C32.6114 3.45287 30.4667 6.93109 31.9081 9.71858L29.323 12.3036H25.3888V7.80183C25.1592 -0.980894 12.8714 -2.07186 11.0341 6.43116H10.8049C5.40543 6.25288 1.32841 12.9972 4.88622 17.3509C-0.760592 19.8819 -0.757302 28.023 4.88622 30.5519C1.32804 34.9068 5.40579 41.6495 10.8049 41.4716H11.0341C12.8751 49.9806 25.1619 48.8771 25.3888 40.1009V35.599H29.323L31.9081 38.184C30.4671 40.9714 32.6111 44.45 35.7635 44.4078C38.1383 44.4078 40.0704 42.4757 40.0704 40.1008C40.1123 36.9488 36.634 34.8041 33.8465 36.2456L30.86 33.2591C30.6031 33.002 30.2544 32.8576 29.8909 32.8576H25.3889V28.2582H32.2595L34.7942 30.7931C35.0512 31.0501 35.3999 31.1946 35.7634 31.1946H39.0221C40.6314 35.7534 47.315 34.716 47.4111 29.8238C47.411 27.4492 45.4789 25.5171 43.104 25.5171ZM43.104 16.5133C43.9672 16.5133 44.6697 17.2156 44.6697 18.0789C44.5909 20.153 41.6168 20.1525 41.5384 18.0789C41.5384 17.2156 42.2407 16.5133 43.104 16.5133ZM35.7633 6.23625C36.6265 6.23625 37.329 6.93858 37.329 7.80183C37.2502 9.87594 34.2761 9.87548 34.1977 7.80183C34.1977 6.93858 34.9 6.23625 35.7633 6.23625ZM22.6475 16.6107C22.5311 19.6586 18.1631 19.6556 18.0481 16.6107C18.0481 15.8537 17.4344 15.24 16.6774 15.24C15.9204 15.24 15.3067 15.8537 15.3067 16.6107C15.2565 20.327 19.3841 22.8357 22.6474 21.0943V26.8085C19.3832 25.0673 15.2566 27.5757 15.3067 31.2923C15.3067 32.0491 15.9203 32.6628 16.6774 32.6628C17.4345 32.6628 18.0481 32.0491 18.0481 31.2922C18.1637 28.2451 22.5326 28.2468 22.6474 31.2922V40.101C22.4207 46.0653 13.8692 46.0636 13.6436 40.1009C13.6436 39.2377 14.346 38.5353 15.2092 38.5353C15.9662 38.5353 16.5799 37.9216 16.5799 37.1647C16.5799 36.4077 15.9662 35.794 15.2092 35.794C13.3136 35.794 11.7011 37.0256 11.1272 38.7303H10.8048C8.3224 38.7303 6.30285 36.7107 6.30285 34.2283C6.30285 32.5555 7.66384 31.1946 9.33661 31.1946C11.152 31.128 11.1528 28.5201 9.33661 28.4532H7.86862C1.9029 28.2261 1.90747 19.6743 7.86862 19.4494H9.33679C11.1533 19.3817 11.1524 16.7752 9.33679 16.7081C7.66402 16.7081 6.30304 15.3471 6.30304 13.6743C6.30304 11.192 8.32259 9.17242 10.805 9.17242H11.1274C11.7013 10.8771 13.3137 12.1087 15.2094 12.1087C15.9664 12.1087 16.5801 11.495 16.5801 10.738C16.5801 9.98102 15.9664 9.36733 15.2094 9.36733C14.3461 9.36733 13.6438 8.66499 13.6438 7.80174C13.8694 1.83849 22.4222 1.83849 22.6476 7.80174V16.6107H22.6475ZM35.7633 38.5354C36.6265 38.5354 37.329 39.2378 37.329 40.101C37.2502 42.1751 34.2761 42.1747 34.1977 40.101C34.1977 39.2378 34.9 38.5354 35.7633 38.5354ZM43.104 31.3896C42.2407 31.3896 41.5384 30.6872 41.5384 29.824C41.6171 27.7498 44.5912 27.7504 44.6697 29.824C44.6697 30.6872 43.9673 31.3896 43.104 31.3896Z" fill="#00B4FF"/>
<path d="M43.104 25.5171C41.2083 25.5171 39.596 26.7487 39.022 28.4533H36.331L33.7963 25.9185C33.5393 25.6614 33.1906 25.517 32.8271 25.517H25.3889V22.3857H32.8271C33.1907 22.3857 33.5393 22.2412 33.7963 21.9842L36.331 19.4494H39.022C40.6306 24.0076 47.315 22.9713 47.411 18.0786C47.3145 13.1852 40.6297 12.1504 39.022 16.708H35.7633C35.3997 16.708 35.0511 16.8525 34.7941 17.1095L32.2594 19.6444H25.3888V15.045H29.8908C30.2544 15.045 30.603 14.9006 30.8599 14.6435L33.8464 11.657C36.6338 13.0981 40.1124 10.9539 40.0703 7.80165C40.0703 5.42682 38.1382 3.49472 35.7634 3.49472C32.6114 3.45287 30.4667 6.93109 31.9081 9.71858L29.323 12.3036H25.3888V7.80183C25.1592 -0.980894 12.8714 -2.07186 11.0341 6.43116H10.8049C5.40543 6.25288 1.32841 12.9972 4.88622 17.3509C-0.760592 19.8819 -0.757302 28.023 4.88622 30.5519C1.32804 34.9068 5.40579 41.6495 10.8049 41.4716H11.0341C12.8751 49.9806 25.1619 48.8771 25.3888 40.1009V35.599H29.323L31.9081 38.184C30.4671 40.9714 32.6111 44.45 35.7635 44.4078C38.1383 44.4078 40.0704 42.4757 40.0704 40.1008C40.1123 36.9488 36.634 34.8041 33.8465 36.2456L30.86 33.2591C30.6031 33.002 30.2544 32.8576 29.8909 32.8576H25.3889V28.2582H32.2595L34.7942 30.7931C35.0512 31.0501 35.3999 31.1946 35.7634 31.1946H39.0221C40.6314 35.7534 47.315 34.716 47.4111 29.8238C47.411 27.4492 45.4789 25.5171 43.104 25.5171ZM43.104 16.5133C43.9672 16.5133 44.6697 17.2156 44.6697 18.0789C44.5909 20.153 41.6168 20.1525 41.5384 18.0789C41.5384 17.2156 42.2407 16.5133 43.104 16.5133ZM35.7633 6.23625C36.6265 6.23625 37.329 6.93858 37.329 7.80183C37.2502 9.87594 34.2761 9.87548 34.1977 7.80183C34.1977 6.93858 34.9 6.23625 35.7633 6.23625ZM22.6475 16.6107C22.5311 19.6586 18.1631 19.6556 18.0481 16.6107C18.0481 15.8537 17.4344 15.24 16.6774 15.24C15.9204 15.24 15.3067 15.8537 15.3067 16.6107C15.2565 20.327 19.3841 22.8357 22.6474 21.0943V26.8085C19.3832 25.0673 15.2566 27.5757 15.3067 31.2923C15.3067 32.0491 15.9203 32.6628 16.6774 32.6628C17.4345 32.6628 18.0481 32.0491 18.0481 31.2922C18.1637 28.2451 22.5326 28.2468 22.6474 31.2922V40.101C22.4207 46.0653 13.8692 46.0636 13.6436 40.1009C13.6436 39.2377 14.346 38.5353 15.2092 38.5353C15.9662 38.5353 16.5799 37.9216 16.5799 37.1647C16.5799 36.4077 15.9662 35.794 15.2092 35.794C13.3136 35.794 11.7011 37.0256 11.1272 38.7303H10.8048C8.3224 38.7303 6.30285 36.7107 6.30285 34.2283C6.30285 32.5555 7.66384 31.1946 9.33661 31.1946C11.152 31.128 11.1528 28.5201 9.33661 28.4532H7.86862C1.9029 28.2261 1.90747 19.6743 7.86862 19.4494H9.33679C11.1533 19.3817 11.1524 16.7752 9.33679 16.7081C7.66402 16.7081 6.30304 15.3471 6.30304 13.6743C6.30304 11.192 8.32259 9.17242 10.805 9.17242H11.1274C11.7013 10.8771 13.3137 12.1087 15.2094 12.1087C15.9664 12.1087 16.5801 11.495 16.5801 10.738C16.5801 9.98102 15.9664 9.36733 15.2094 9.36733C14.3461 9.36733 13.6438 8.66499 13.6438 7.80174C13.8694 1.83849 22.4222 1.83849 22.6476 7.80174V16.6107H22.6475ZM35.7633 38.5354C36.6265 38.5354 37.329 39.2378 37.329 40.101C37.2502 42.1751 34.2761 42.1747 34.1977 40.101C34.1977 39.2378 34.9 38.5354 35.7633 38.5354ZM43.104 31.3896C42.2407 31.3896 41.5384 30.6872 41.5384 29.824C41.6171 27.7498 44.5912 27.7504 44.6697 29.824C44.6697 30.6872 43.9673 31.3896 43.104 31.3896Z" fill="url(#paint0_linear_38_2428)"/>
<defs>
<linearGradient id="paint0_linear_38_2428" x1="0.652344" y1="8.08259" x2="51.5963" y2="14.6032" gradientUnits="userSpaceOnUse">
<stop stop-color="#FF8E37"/>
<stop offset="1" stop-color="#F05306"/>
</linearGradient>
</defs>
</svg>
