<svg width="15" height="19" viewBox="0 0 15 19" fill="none" xmlns="http://www.w3.org/2000/svg">
<path fill-rule="evenodd" clip-rule="evenodd" d="M1.9 7.38889V5.48889C1.9 2.45754 4.35754 0 7.38889 0C10.4202 0 12.8778 2.45754 12.8778 5.48889V7.38889H13.3C14.1164 7.38889 14.7778 8.05026 14.7778 8.86667V17.5222C14.7778 18.3386 14.1164 19 13.3 19H1.47778C0.661369 19 0 18.3386 0 17.5222V8.86667C0 8.05026 0.661369 7.38889 1.47778 7.38889H1.9ZM4.43333 5.48889C4.43333 3.85689 5.75689 2.53333 7.38889 2.53333C9.02088 2.53333 10.3444 3.85689 10.3444 5.48889V7.38889H4.43333V5.48889ZM8.12778 12.9257C8.50877 12.6824 8.76111 12.2553 8.76111 11.7695C8.76111 11.0117 8.14674 10.3973 7.38889 10.3973C6.63104 10.3973 6.01667 11.0117 6.01667 11.7695C6.01667 12.2553 6.26901 12.6824 6.65 12.9257V15.2528C6.65 15.661 6.98069 15.9917 7.38889 15.9917C7.79709 15.9917 8.12778 15.661 8.12778 15.2528V12.9257Z" fill="white"/>
</svg>
