<svg width="58" height="60" viewBox="0 0 58 60" fill="none" xmlns="http://www.w3.org/2000/svg">
<path fill-rule="evenodd" clip-rule="evenodd" d="M6.60804 35.3902L20.5658 22.2538C21.1762 21.6794 22.1289 21.6819 22.7362 22.2594L27.3356 26.6339C27.944 27.2125 28.8987 27.2139 29.5086 26.6371L42.956 13.9205C43.6298 13.2833 44.7051 13.3612 45.2799 14.0889L48.5993 18.2911C49.4652 19.3875 51.2237 18.9017 51.404 17.5162L53.4518 1.78271C53.5748 0.837789 52.839 0 51.886 0H35.4554C34.0985 0 33.3736 1.59861 34.2677 2.61932L37.9797 6.85697C38.544 7.50118 38.4919 8.47776 37.8623 9.05826L29.4543 16.8102C28.865 17.3534 27.9623 17.3691 27.3546 16.8466L22.6998 12.8445C22.1007 12.3294 21.213 12.3364 20.6221 12.861L4.47756 27.1948C4.14006 27.4944 3.94696 27.9242 3.94696 28.3755V34.2404C3.94696 35.6242 5.60043 36.3386 6.60804 35.3902ZM48.1575 25.2632C48.1575 24.3911 48.8644 23.6842 49.7364 23.6842H56.0522C56.9243 23.6842 57.6312 24.3911 57.6312 25.2632V58.4211C57.6312 59.2931 56.9243 60 56.0522 60H49.7364C48.8644 60 48.1575 59.2931 48.1575 58.4211V25.2632ZM33.947 30.7895C33.0749 30.7895 32.368 31.4964 32.368 32.3684V58.4211C32.368 59.2931 33.0749 60 33.947 60H40.2627C41.1348 60 41.8417 59.2931 41.8417 58.4211V32.3684C41.8417 31.4964 41.1348 30.7895 40.2627 30.7895H33.947ZM16.5785 41.0526C16.5785 40.1806 17.2854 39.4737 18.1575 39.4737H24.4733C25.3453 39.4737 26.0522 40.1806 26.0522 41.0526V58.4211C26.0522 59.2931 25.3453 60 24.4733 60H18.1575C17.2854 60 16.5785 59.2931 16.5785 58.4211V41.0526ZM0.789062 47.3684C0.789062 46.4964 1.49596 45.7895 2.36801 45.7895H8.6838C9.55585 45.7895 10.2627 46.4964 10.2627 47.3684V58.4211C10.2627 59.2931 9.55585 60 8.6838 60H2.36801C1.49596 60 0.789062 59.2931 0.789062 58.4211V47.3684Z" fill="white"/>
</svg>
