<svg width="33" height="40" viewBox="0 0 33 40" fill="none" xmlns="http://www.w3.org/2000/svg">
<path d="M15.1054 32.325C12.9954 32.325 11.1033 32.2836 9.2111 32.3406C7.96694 32.3769 7.51074 31.8507 7.5548 30.6402C7.61183 29.085 7.51593 27.5298 7.58591 25.9746C7.63257 24.9793 7.24635 24.7045 6.30804 24.7434C4.75283 24.8056 3.19762 24.7019 1.64241 24.7771C0.369729 24.8393 -0.0294382 24.2898 0.00166602 23.0871C0.0560984 21.0601 0.00166602 19.0306 0.00166602 17.001C0.00166602 15.3784 0.196066 15.1866 1.77461 15.1866C3.35314 15.1866 4.88503 15.1607 6.44024 15.1996C7.26968 15.2203 7.59887 14.9274 7.56777 14.0721C7.51593 12.5169 7.54703 10.9616 7.55221 9.40643C7.5574 7.85122 7.8477 7.57128 9.34589 7.55832C11.1966 7.54277 13.0473 7.55832 15.0846 7.55832C15.0846 5.58839 15.0846 3.70658 15.0846 1.82478C15.0846 0.339554 15.4112 0.0103681 16.899 0.0103681C18.9294 -0.00345602 20.959 -0.00345602 22.9877 0.0103681C24.4573 0.0103681 24.7788 0.357691 24.7865 1.86625C24.7865 3.71435 24.7865 5.56247 24.7865 7.61017C26.7202 7.61017 28.5216 7.61017 30.3257 7.61017C32.1297 7.61017 32.3267 7.82788 32.3293 9.62415C32.3293 11.6537 32.3034 13.6833 32.3293 15.7128C32.3475 16.8144 31.8887 17.268 30.7741 17.2499C28.659 17.2084 26.5413 17.2499 24.4263 17.2499C22.8218 17.2499 22.6118 17.0399 22.6118 15.4718C22.6118 13.9036 22.5807 12.2758 22.6118 10.6791C22.6274 9.95075 22.3526 9.68118 21.6346 9.7071C20.5123 9.74857 19.3874 9.75635 18.265 9.7071C17.3993 9.67081 17.1323 10.057 17.1453 10.8631C17.1738 12.4598 17.1168 14.0591 17.1453 15.6558C17.1712 16.7885 16.7668 17.3224 15.5538 17.2706C13.9182 17.2006 12.2723 17.2862 10.6289 17.2473C9.85133 17.2291 9.5377 17.5272 9.56103 18.3022C9.59472 19.4686 9.58695 20.6351 9.56103 21.8015C9.54548 22.5194 9.84874 22.7994 10.5667 22.7864C12.1634 22.7579 13.7627 22.7864 15.3594 22.7864C16.9561 22.7864 17.1116 22.9627 17.1219 24.6008C17.1219 26.112 17.153 27.6231 17.1219 29.1343C17.0986 29.987 17.3319 30.3992 18.2858 30.3499C19.6569 30.2774 21.0333 30.3318 22.5989 30.3318C22.5989 28.3826 22.5989 26.5449 22.5989 24.7045C22.5989 22.9938 22.8011 22.7994 24.5507 22.7968C26.6243 22.7968 28.6979 22.8253 30.7715 22.7968C31.8731 22.776 32.3397 23.2219 32.3267 24.3339C32.2878 26.5345 32.3008 28.7403 32.3267 30.9409C32.3267 31.9155 31.9094 32.3613 30.9244 32.351C29.2422 32.3328 27.5548 32.3847 25.8752 32.351C25.0198 32.3302 24.7373 32.6646 24.7606 33.4966C24.8073 35.0933 24.7399 36.6926 24.7839 38.2893C24.8176 39.4246 24.3485 40 23.208 40C21.0048 40 18.8016 40 16.6009 40C15.5434 40 15.0457 39.4972 15.0717 38.3904C15.1365 36.4127 15.1054 34.4764 15.1054 32.325ZM7.56777 20.0493C7.56777 17.2317 7.56776 17.2317 4.81763 17.2395C2.0675 17.2473 2.07269 17.2395 2.07269 19.9456C2.07269 22.7605 2.07269 22.7605 4.84355 22.7605C7.56517 22.7605 7.56517 22.7605 7.56777 20.0493ZM15.0276 24.7667C13.4024 24.7667 11.9431 24.7356 10.489 24.7926C10.1987 24.7926 9.68545 25.1452 9.67508 25.3499C9.60769 26.9622 9.63879 28.5796 9.63879 30.1789H15.0276V24.7667ZM15.0276 9.80819C9.68026 9.23017 9.38996 9.46605 9.61805 14.0695C9.61805 14.2405 9.57658 14.4557 9.65953 14.5879C9.81246 14.8108 10.0406 15.14 10.2427 15.1452C11.8213 15.1918 13.4024 15.1711 15.0276 15.1711V9.80819ZM24.8073 30.2255H30.2064C30.2064 28.5822 30.2453 26.9959 30.1676 25.4173C30.1676 25.184 29.6206 24.8056 29.3122 24.7875C28.1095 24.7149 26.9016 24.7875 25.6963 24.7538C25.0302 24.7382 24.7736 25.013 24.7839 25.6713C24.8202 27.1332 24.8021 28.5951 24.8021 30.2255H24.8073ZM22.6352 37.8201C22.6352 36.1224 22.674 34.619 22.6015 33.1208C22.5547 32.9433 22.4632 32.7807 22.3357 32.6486C22.2082 32.5166 22.0489 32.4194 21.8731 32.3665C20.5827 32.2862 19.2885 32.2862 17.998 32.3665C17.8155 32.416 17.6484 32.5108 17.5125 32.6423C17.3765 32.7737 17.276 32.9374 17.2204 33.1182C17.1317 34.4127 17.1317 35.7117 17.2204 37.0062C17.2412 37.2991 17.7596 37.7838 18.0706 37.7838C19.5092 37.8668 20.9685 37.8201 22.63 37.8201H22.6352ZM30.2427 12.4832C30.2427 9.68378 30.2427 9.68377 27.433 9.68895C24.8021 9.68895 24.8021 9.68896 24.7995 12.3873C24.7995 15.1866 24.7995 15.21 27.5911 15.1789C30.533 15.1581 30.2065 15.7154 30.2427 12.4832ZM22.6196 7.55832C22.6196 5.88388 22.6637 4.3831 22.5781 2.89269C22.5652 2.63349 22.0234 2.20581 21.6994 2.18248C20.546 2.09435 19.3796 2.18248 18.2184 2.13842C17.5159 2.12028 17.1816 2.39762 17.1816 3.10524C17.1971 4.30793 17.1271 5.51581 17.2204 6.71332C17.2763 6.90639 17.3803 7.08212 17.5227 7.22402C17.665 7.36592 17.8411 7.46935 18.0343 7.52462C19.4962 7.61794 20.9555 7.57128 22.6196 7.57128V7.55832Z" fill="white"/>
</svg>
